<mxfile host="65bd71144e">
    <diagram id="DTpviC2VuXnxgNMAn6qi" name="Main">
        <mxGraphModel dx="2434" dy="1522" grid="1" gridSize="10" guides="1" tooltips="1" connect="1" arrows="1" fold="1" page="1" pageScale="1" pageWidth="850" pageHeight="1100" background="#ffffff" math="0" shadow="0">
            <root>
                <mxCell id="0"/>
                <mxCell id="1" parent="0"/>
                <mxCell id="L1XubLALkSbKmpZ24kiv-25" style="edgeStyle=orthogonalEdgeStyle;rounded=0;orthogonalLoop=1;jettySize=auto;html=1;exitX=0.5;exitY=1;exitDx=0;exitDy=0;entryX=0.5;entryY=0;entryDx=0;entryDy=0;" parent="1" source="aSrJNdCyeX4z1PQ2K5e5-1" target="aSrJNdCyeX4z1PQ2K5e5-183" edge="1">
                    <mxGeometry relative="1" as="geometry"/>
                </mxCell>
                <mxCell id="L1XubLALkSbKmpZ24kiv-26" style="edgeStyle=orthogonalEdgeStyle;rounded=0;orthogonalLoop=1;jettySize=auto;html=1;exitX=0.5;exitY=1;exitDx=0;exitDy=0;entryX=0.5;entryY=0;entryDx=0;entryDy=0;" parent="1" source="aSrJNdCyeX4z1PQ2K5e5-1" target="aSrJNdCyeX4z1PQ2K5e5-181" edge="1">
                    <mxGeometry relative="1" as="geometry"/>
                </mxCell>
                <mxCell id="L1XubLALkSbKmpZ24kiv-27" style="edgeStyle=orthogonalEdgeStyle;rounded=0;orthogonalLoop=1;jettySize=auto;html=1;exitX=0.5;exitY=1;exitDx=0;exitDy=0;entryX=0.5;entryY=0;entryDx=0;entryDy=0;" parent="1" source="aSrJNdCyeX4z1PQ2K5e5-1" target="aSrJNdCyeX4z1PQ2K5e5-2" edge="1">
                    <mxGeometry relative="1" as="geometry"/>
                </mxCell>
                <mxCell id="L1XubLALkSbKmpZ24kiv-28" style="edgeStyle=orthogonalEdgeStyle;rounded=0;orthogonalLoop=1;jettySize=auto;html=1;exitX=0.5;exitY=1;exitDx=0;exitDy=0;entryX=0.5;entryY=0;entryDx=0;entryDy=0;" parent="1" source="aSrJNdCyeX4z1PQ2K5e5-1" target="aSrJNdCyeX4z1PQ2K5e5-3" edge="1">
                    <mxGeometry relative="1" as="geometry"/>
                </mxCell>
                <mxCell id="L1XubLALkSbKmpZ24kiv-29" style="edgeStyle=orthogonalEdgeStyle;rounded=0;orthogonalLoop=1;jettySize=auto;html=1;exitX=0.5;exitY=1;exitDx=0;exitDy=0;entryX=0.5;entryY=0;entryDx=0;entryDy=0;" parent="1" source="aSrJNdCyeX4z1PQ2K5e5-1" target="aSrJNdCyeX4z1PQ2K5e5-4" edge="1">
                    <mxGeometry relative="1" as="geometry"/>
                </mxCell>
                <mxCell id="L1XubLALkSbKmpZ24kiv-30" style="edgeStyle=orthogonalEdgeStyle;rounded=0;orthogonalLoop=1;jettySize=auto;html=1;exitX=0.5;exitY=1;exitDx=0;exitDy=0;entryX=0.5;entryY=0;entryDx=0;entryDy=0;" parent="1" source="aSrJNdCyeX4z1PQ2K5e5-1" target="aSrJNdCyeX4z1PQ2K5e5-5" edge="1">
                    <mxGeometry relative="1" as="geometry"/>
                </mxCell>
                <mxCell id="L1XubLALkSbKmpZ24kiv-31" style="edgeStyle=orthogonalEdgeStyle;rounded=0;orthogonalLoop=1;jettySize=auto;html=1;exitX=0.5;exitY=1;exitDx=0;exitDy=0;entryX=0.5;entryY=0;entryDx=0;entryDy=0;" parent="1" source="aSrJNdCyeX4z1PQ2K5e5-1" target="aSrJNdCyeX4z1PQ2K5e5-6" edge="1">
                    <mxGeometry relative="1" as="geometry"/>
                </mxCell>
                <mxCell id="L1XubLALkSbKmpZ24kiv-32" style="edgeStyle=orthogonalEdgeStyle;rounded=0;orthogonalLoop=1;jettySize=auto;html=1;exitX=0.5;exitY=1;exitDx=0;exitDy=0;entryX=0.5;entryY=0;entryDx=0;entryDy=0;" parent="1" source="aSrJNdCyeX4z1PQ2K5e5-1" target="aSrJNdCyeX4z1PQ2K5e5-24" edge="1">
                    <mxGeometry relative="1" as="geometry"/>
                </mxCell>
                <mxCell id="L1XubLALkSbKmpZ24kiv-34" style="edgeStyle=orthogonalEdgeStyle;rounded=0;orthogonalLoop=1;jettySize=auto;html=1;exitX=0.5;exitY=1;exitDx=0;exitDy=0;entryX=0.5;entryY=0;entryDx=0;entryDy=0;" parent="1" source="aSrJNdCyeX4z1PQ2K5e5-1" target="aSrJNdCyeX4z1PQ2K5e5-29" edge="1">
                    <mxGeometry relative="1" as="geometry"/>
                </mxCell>
                <mxCell id="L1XubLALkSbKmpZ24kiv-35" style="edgeStyle=orthogonalEdgeStyle;rounded=0;orthogonalLoop=1;jettySize=auto;html=1;exitX=0.5;exitY=1;exitDx=0;exitDy=0;entryX=0.5;entryY=0;entryDx=0;entryDy=0;" parent="1" source="aSrJNdCyeX4z1PQ2K5e5-1" target="aSrJNdCyeX4z1PQ2K5e5-45" edge="1">
                    <mxGeometry relative="1" as="geometry"/>
                </mxCell>
                <mxCell id="L1XubLALkSbKmpZ24kiv-37" style="edgeStyle=orthogonalEdgeStyle;rounded=0;orthogonalLoop=1;jettySize=auto;html=1;exitX=0.5;exitY=1;exitDx=0;exitDy=0;entryX=0.5;entryY=0;entryDx=0;entryDy=0;" parent="1" source="aSrJNdCyeX4z1PQ2K5e5-1" target="aSrJNdCyeX4z1PQ2K5e5-73" edge="1">
                    <mxGeometry relative="1" as="geometry"/>
                </mxCell>
                <mxCell id="L1XubLALkSbKmpZ24kiv-44" style="edgeStyle=orthogonalEdgeStyle;rounded=0;orthogonalLoop=1;jettySize=auto;html=1;exitX=0.5;exitY=1;exitDx=0;exitDy=0;entryX=0.5;entryY=0;entryDx=0;entryDy=0;" parent="1" source="aSrJNdCyeX4z1PQ2K5e5-1" target="aSrJNdCyeX4z1PQ2K5e5-92" edge="1">
                    <mxGeometry relative="1" as="geometry"/>
                </mxCell>
                <mxCell id="L1XubLALkSbKmpZ24kiv-49" style="edgeStyle=orthogonalEdgeStyle;rounded=0;orthogonalLoop=1;jettySize=auto;html=1;exitX=0.5;exitY=1;exitDx=0;exitDy=0;entryX=0.5;entryY=0;entryDx=0;entryDy=0;" parent="1" source="aSrJNdCyeX4z1PQ2K5e5-1" target="L1XubLALkSbKmpZ24kiv-45" edge="1">
                    <mxGeometry relative="1" as="geometry"/>
                </mxCell>
                <mxCell id="43Fq6-LTpGHueU-0Q88h-1" style="edgeStyle=orthogonalEdgeStyle;rounded=0;orthogonalLoop=1;jettySize=auto;html=1;exitX=0.5;exitY=1;exitDx=0;exitDy=0;entryX=0.5;entryY=0;entryDx=0;entryDy=0;" parent="1" source="aSrJNdCyeX4z1PQ2K5e5-1" target="aSrJNdCyeX4z1PQ2K5e5-105" edge="1">
                    <mxGeometry relative="1" as="geometry"/>
                </mxCell>
                <mxCell id="LmqjV7RejRyaaiGA6MX_-4" style="edgeStyle=orthogonalEdgeStyle;rounded=0;orthogonalLoop=1;jettySize=auto;html=1;exitX=0.5;exitY=1;exitDx=0;exitDy=0;entryX=0.5;entryY=0;entryDx=0;entryDy=0;" parent="1" source="aSrJNdCyeX4z1PQ2K5e5-1" target="LmqjV7RejRyaaiGA6MX_-2" edge="1">
                    <mxGeometry relative="1" as="geometry"/>
                </mxCell>
                <mxCell id="LmqjV7RejRyaaiGA6MX_-33" style="edgeStyle=orthogonalEdgeStyle;rounded=0;orthogonalLoop=1;jettySize=auto;html=1;exitX=0.5;exitY=1;exitDx=0;exitDy=0;entryX=0.5;entryY=0;entryDx=0;entryDy=0;" parent="1" source="aSrJNdCyeX4z1PQ2K5e5-1" target="LmqjV7RejRyaaiGA6MX_-31" edge="1">
                    <mxGeometry relative="1" as="geometry"/>
                </mxCell>
                <mxCell id="LmqjV7RejRyaaiGA6MX_-115" style="edgeStyle=orthogonalEdgeStyle;rounded=0;orthogonalLoop=1;jettySize=auto;html=1;exitX=0.5;exitY=1;exitDx=0;exitDy=0;entryX=0.5;entryY=0;entryDx=0;entryDy=0;" parent="1" source="aSrJNdCyeX4z1PQ2K5e5-1" target="LmqjV7RejRyaaiGA6MX_-106" edge="1">
                    <mxGeometry relative="1" as="geometry"/>
                </mxCell>
                <mxCell id="LmqjV7RejRyaaiGA6MX_-228" style="edgeStyle=orthogonalEdgeStyle;rounded=0;orthogonalLoop=1;jettySize=auto;html=1;exitX=0.5;exitY=1;exitDx=0;exitDy=0;entryX=0.5;entryY=0;entryDx=0;entryDy=0;" parent="1" source="aSrJNdCyeX4z1PQ2K5e5-1" target="LmqjV7RejRyaaiGA6MX_-64" edge="1">
                    <mxGeometry relative="1" as="geometry"/>
                </mxCell>
                <mxCell id="LmqjV7RejRyaaiGA6MX_-252" style="edgeStyle=orthogonalEdgeStyle;rounded=0;orthogonalLoop=1;jettySize=auto;html=1;exitX=0.5;exitY=1;exitDx=0;exitDy=0;entryX=0.5;entryY=0;entryDx=0;entryDy=0;" parent="1" source="aSrJNdCyeX4z1PQ2K5e5-1" target="LmqjV7RejRyaaiGA6MX_-251" edge="1">
                    <mxGeometry relative="1" as="geometry"/>
                </mxCell>
                <mxCell id="qzxj-ttTBUn77yOQ_jce-2" style="edgeStyle=orthogonalEdgeStyle;rounded=0;orthogonalLoop=1;jettySize=auto;html=1;exitX=0.5;exitY=1;exitDx=0;exitDy=0;" parent="1" source="aSrJNdCyeX4z1PQ2K5e5-1" target="qzxj-ttTBUn77yOQ_jce-1" edge="1">
                    <mxGeometry relative="1" as="geometry"/>
                </mxCell>
                <mxCell id="qzxj-ttTBUn77yOQ_jce-22" style="edgeStyle=orthogonalEdgeStyle;rounded=0;orthogonalLoop=1;jettySize=auto;html=1;exitX=0.5;exitY=1;exitDx=0;exitDy=0;entryX=0.5;entryY=0;entryDx=0;entryDy=0;" parent="1" source="aSrJNdCyeX4z1PQ2K5e5-1" target="qzxj-ttTBUn77yOQ_jce-3" edge="1">
                    <mxGeometry relative="1" as="geometry"/>
                </mxCell>
                <mxCell id="OrvMSEwqDPW3akcP_g01-3" style="edgeStyle=orthogonalEdgeStyle;rounded=0;orthogonalLoop=1;jettySize=auto;html=1;exitX=0.5;exitY=1;exitDx=0;exitDy=0;" parent="1" source="aSrJNdCyeX4z1PQ2K5e5-1" target="OrvMSEwqDPW3akcP_g01-1" edge="1">
                    <mxGeometry relative="1" as="geometry"/>
                </mxCell>
                <mxCell id="YJpZj2CCEz0B78eYYyqZ-2" style="edgeStyle=orthogonalEdgeStyle;rounded=0;orthogonalLoop=1;jettySize=auto;html=1;exitX=0.5;exitY=1;exitDx=0;exitDy=0;" parent="1" source="aSrJNdCyeX4z1PQ2K5e5-1" target="YJpZj2CCEz0B78eYYyqZ-1" edge="1">
                    <mxGeometry relative="1" as="geometry"/>
                </mxCell>
                <mxCell id="aSrJNdCyeX4z1PQ2K5e5-1" value="User" style="rounded=0;whiteSpace=wrap;html=1;fillColor=#f8cecc;strokeColor=#b85450;" parent="1" vertex="1">
                    <mxGeometry x="1950" y="-620" width="120" height="60" as="geometry"/>
                </mxCell>
                <mxCell id="aSrJNdCyeX4z1PQ2K5e5-2" value="username" style="rounded=0;whiteSpace=wrap;html=1;fillColor=#dae8fc;strokeColor=#6c8ebf;" parent="1" vertex="1">
                    <mxGeometry x="-130" y="-410" width="120" height="60" as="geometry"/>
                </mxCell>
                <mxCell id="aSrJNdCyeX4z1PQ2K5e5-3" value="email" style="rounded=0;whiteSpace=wrap;html=1;fillColor=#dae8fc;strokeColor=#6c8ebf;" parent="1" vertex="1">
                    <mxGeometry x="10" y="-410" width="120" height="60" as="geometry"/>
                </mxCell>
                <mxCell id="aSrJNdCyeX4z1PQ2K5e5-4" value="password" style="rounded=0;whiteSpace=wrap;html=1;fillColor=#dae8fc;strokeColor=#6c8ebf;" parent="1" vertex="1">
                    <mxGeometry x="150" y="-410" width="120" height="60" as="geometry"/>
                </mxCell>
                <mxCell id="aSrJNdCyeX4z1PQ2K5e5-5" value="dob" style="rounded=0;whiteSpace=wrap;html=1;fillColor=#dae8fc;strokeColor=#6c8ebf;" parent="1" vertex="1">
                    <mxGeometry x="290" y="-410" width="120" height="60" as="geometry"/>
                </mxCell>
                <mxCell id="aSrJNdCyeX4z1PQ2K5e5-21" style="edgeStyle=orthogonalEdgeStyle;rounded=0;orthogonalLoop=1;jettySize=auto;html=1;entryX=0.5;entryY=0;entryDx=0;entryDy=0;" parent="1" source="aSrJNdCyeX4z1PQ2K5e5-6" target="aSrJNdCyeX4z1PQ2K5e5-11" edge="1">
                    <mxGeometry relative="1" as="geometry">
                        <Array as="points">
                            <mxPoint x="520" y="-330"/>
                            <mxPoint x="375" y="-330"/>
                        </Array>
                    </mxGeometry>
                </mxCell>
                <mxCell id="aSrJNdCyeX4z1PQ2K5e5-22" style="edgeStyle=orthogonalEdgeStyle;rounded=0;orthogonalLoop=1;jettySize=auto;html=1;entryX=0.5;entryY=0;entryDx=0;entryDy=0;" parent="1" source="aSrJNdCyeX4z1PQ2K5e5-6" target="aSrJNdCyeX4z1PQ2K5e5-12" edge="1">
                    <mxGeometry relative="1" as="geometry">
                        <Array as="points">
                            <mxPoint x="520" y="-330"/>
                            <mxPoint x="665" y="-330"/>
                        </Array>
                    </mxGeometry>
                </mxCell>
                <mxCell id="aSrJNdCyeX4z1PQ2K5e5-6" value="contact" style="rounded=0;whiteSpace=wrap;html=1;fillColor=#f8cecc;strokeColor=#b85450;" parent="1" vertex="1">
                    <mxGeometry x="460" y="-410" width="120" height="60" as="geometry"/>
                </mxCell>
                <mxCell id="aSrJNdCyeX4z1PQ2K5e5-7" value="String" style="rounded=0;whiteSpace=wrap;html=1;fillColor=#dae8fc;strokeColor=#6c8ebf;" parent="1" vertex="1">
                    <mxGeometry x="20" y="-810" width="120" height="60" as="geometry"/>
                </mxCell>
                <mxCell id="aSrJNdCyeX4z1PQ2K5e5-8" value="Number" style="rounded=0;whiteSpace=wrap;html=1;fillColor=#d5e8d4;strokeColor=#82b366;" parent="1" vertex="1">
                    <mxGeometry x="160" y="-810" width="120" height="60" as="geometry"/>
                </mxCell>
                <mxCell id="aSrJNdCyeX4z1PQ2K5e5-9" value="Array" style="rounded=0;whiteSpace=wrap;html=1;fillColor=#fff2cc;strokeColor=#d6b656;" parent="1" vertex="1">
                    <mxGeometry x="20" y="-730" width="120" height="60" as="geometry"/>
                </mxCell>
                <mxCell id="aSrJNdCyeX4z1PQ2K5e5-10" value="Object" style="rounded=0;whiteSpace=wrap;html=1;fillColor=#f8cecc;strokeColor=#b85450;" parent="1" vertex="1">
                    <mxGeometry x="160" y="-730" width="120" height="60" as="geometry"/>
                </mxCell>
                <mxCell id="aSrJNdCyeX4z1PQ2K5e5-11" value="phoneNo" style="rounded=0;whiteSpace=wrap;html=1;fillColor=#fff2cc;strokeColor=#d6b656;" parent="1" vertex="1">
                    <mxGeometry x="315" y="-290" width="120" height="60" as="geometry"/>
                </mxCell>
                <mxCell id="aSrJNdCyeX4z1PQ2K5e5-12" value="email" style="rounded=0;whiteSpace=wrap;html=1;fillColor=#fff2cc;strokeColor=#d6b656;" parent="1" vertex="1">
                    <mxGeometry x="605" y="-290" width="120" height="60" as="geometry"/>
                </mxCell>
                <mxCell id="aSrJNdCyeX4z1PQ2K5e5-23" style="edgeStyle=orthogonalEdgeStyle;rounded=0;orthogonalLoop=1;jettySize=auto;html=1;entryX=0.5;entryY=0;entryDx=0;entryDy=0;" parent="1" source="aSrJNdCyeX4z1PQ2K5e5-13" target="aSrJNdCyeX4z1PQ2K5e5-14" edge="1">
                    <mxGeometry relative="1" as="geometry">
                        <Array as="points">
                            <mxPoint x="375" y="-160"/>
                            <mxPoint x="300" y="-160"/>
                        </Array>
                    </mxGeometry>
                </mxCell>
                <mxCell id="aSrJNdCyeX4z1PQ2K5e5-25" style="edgeStyle=orthogonalEdgeStyle;rounded=0;orthogonalLoop=1;jettySize=auto;html=1;entryX=0.5;entryY=0;entryDx=0;entryDy=0;" parent="1" source="aSrJNdCyeX4z1PQ2K5e5-13" target="aSrJNdCyeX4z1PQ2K5e5-17" edge="1">
                    <mxGeometry relative="1" as="geometry">
                        <Array as="points">
                            <mxPoint x="375" y="-160"/>
                            <mxPoint x="450" y="-160"/>
                        </Array>
                    </mxGeometry>
                </mxCell>
                <mxCell id="aSrJNdCyeX4z1PQ2K5e5-117" value="" style="edgeStyle=orthogonalEdgeStyle;rounded=0;orthogonalLoop=1;jettySize=auto;html=1;" parent="1" source="aSrJNdCyeX4z1PQ2K5e5-13" target="aSrJNdCyeX4z1PQ2K5e5-11" edge="1">
                    <mxGeometry relative="1" as="geometry"/>
                </mxCell>
                <mxCell id="aSrJNdCyeX4z1PQ2K5e5-13" value="" style="rounded=0;whiteSpace=wrap;html=1;fillColor=#f8cecc;strokeColor=#b85450;" parent="1" vertex="1">
                    <mxGeometry x="315" y="-230" width="120" height="10" as="geometry"/>
                </mxCell>
                <mxCell id="aSrJNdCyeX4z1PQ2K5e5-14" value="content" style="rounded=0;whiteSpace=wrap;html=1;fillColor=#dae8fc;strokeColor=#6c8ebf;" parent="1" vertex="1">
                    <mxGeometry x="240" y="-140" width="120" height="60" as="geometry"/>
                </mxCell>
                <mxCell id="aSrJNdCyeX4z1PQ2K5e5-16" value="Boolean" style="rounded=0;whiteSpace=wrap;html=1;fillColor=#e1d5e7;strokeColor=#9673a6;" parent="1" vertex="1">
                    <mxGeometry x="310" y="-810" width="120" height="60" as="geometry"/>
                </mxCell>
                <mxCell id="aSrJNdCyeX4z1PQ2K5e5-17" value="access (Enum)" style="rounded=0;whiteSpace=wrap;html=1;fillColor=#dae8fc;strokeColor=#6c8ebf;" parent="1" vertex="1">
                    <mxGeometry x="390" y="-140" width="120" height="60" as="geometry"/>
                </mxCell>
                <mxCell id="aSrJNdCyeX4z1PQ2K5e5-31" style="edgeStyle=orthogonalEdgeStyle;rounded=0;orthogonalLoop=1;jettySize=auto;html=1;entryX=0.5;entryY=0;entryDx=0;entryDy=0;" parent="1" source="aSrJNdCyeX4z1PQ2K5e5-18" target="aSrJNdCyeX4z1PQ2K5e5-19" edge="1">
                    <mxGeometry relative="1" as="geometry">
                        <Array as="points">
                            <mxPoint x="665" y="-160"/>
                            <mxPoint x="590" y="-160"/>
                        </Array>
                    </mxGeometry>
                </mxCell>
                <mxCell id="aSrJNdCyeX4z1PQ2K5e5-32" style="edgeStyle=orthogonalEdgeStyle;rounded=0;orthogonalLoop=1;jettySize=auto;html=1;entryX=0.5;entryY=0;entryDx=0;entryDy=0;" parent="1" source="aSrJNdCyeX4z1PQ2K5e5-18" target="aSrJNdCyeX4z1PQ2K5e5-20" edge="1">
                    <mxGeometry relative="1" as="geometry">
                        <Array as="points">
                            <mxPoint x="665" y="-160"/>
                            <mxPoint x="740" y="-160"/>
                        </Array>
                    </mxGeometry>
                </mxCell>
                <mxCell id="aSrJNdCyeX4z1PQ2K5e5-18" value="" style="rounded=0;whiteSpace=wrap;html=1;fillColor=#f8cecc;strokeColor=#b85450;" parent="1" vertex="1">
                    <mxGeometry x="605" y="-230" width="120" height="10" as="geometry"/>
                </mxCell>
                <mxCell id="aSrJNdCyeX4z1PQ2K5e5-19" value="content" style="rounded=0;whiteSpace=wrap;html=1;fillColor=#dae8fc;strokeColor=#6c8ebf;" parent="1" vertex="1">
                    <mxGeometry x="530" y="-140" width="120" height="60" as="geometry"/>
                </mxCell>
                <mxCell id="aSrJNdCyeX4z1PQ2K5e5-20" value="access (Enum)" style="rounded=0;whiteSpace=wrap;html=1;fillColor=#dae8fc;strokeColor=#6c8ebf;" parent="1" vertex="1">
                    <mxGeometry x="680" y="-140" width="120" height="60" as="geometry"/>
                </mxCell>
                <mxCell id="aSrJNdCyeX4z1PQ2K5e5-24" value="skills" style="rounded=0;whiteSpace=wrap;html=1;fillColor=#fff2cc;strokeColor=#d6b656;" parent="1" vertex="1">
                    <mxGeometry x="810" y="-410" width="120" height="60" as="geometry"/>
                </mxCell>
                <mxCell id="aSrJNdCyeX4z1PQ2K5e5-26" value="" style="rounded=0;whiteSpace=wrap;html=1;fillColor=#dae8fc;strokeColor=#6c8ebf;" parent="1" vertex="1">
                    <mxGeometry x="810" y="-350" width="120" height="10" as="geometry"/>
                </mxCell>
                <mxCell id="aSrJNdCyeX4z1PQ2K5e5-29" value="experience" style="rounded=0;whiteSpace=wrap;html=1;fillColor=#fff2cc;strokeColor=#d6b656;" parent="1" vertex="1">
                    <mxGeometry x="1260" y="-410" width="120" height="60" as="geometry"/>
                </mxCell>
                <mxCell id="LmqjV7RejRyaaiGA6MX_-40" style="edgeStyle=orthogonalEdgeStyle;rounded=0;orthogonalLoop=1;jettySize=auto;html=1;exitX=0.5;exitY=1;exitDx=0;exitDy=0;entryX=0.5;entryY=0;entryDx=0;entryDy=0;" parent="1" source="aSrJNdCyeX4z1PQ2K5e5-30" target="aSrJNdCyeX4z1PQ2K5e5-36" edge="1">
                    <mxGeometry relative="1" as="geometry"/>
                </mxCell>
                <mxCell id="LmqjV7RejRyaaiGA6MX_-41" style="edgeStyle=orthogonalEdgeStyle;rounded=0;orthogonalLoop=1;jettySize=auto;html=1;exitX=0.5;exitY=1;exitDx=0;exitDy=0;entryX=0.5;entryY=0;entryDx=0;entryDy=0;" parent="1" source="aSrJNdCyeX4z1PQ2K5e5-30" target="aSrJNdCyeX4z1PQ2K5e5-67" edge="1">
                    <mxGeometry relative="1" as="geometry"/>
                </mxCell>
                <mxCell id="LmqjV7RejRyaaiGA6MX_-42" style="edgeStyle=orthogonalEdgeStyle;rounded=0;orthogonalLoop=1;jettySize=auto;html=1;exitX=0.5;exitY=1;exitDx=0;exitDy=0;entryX=0.5;entryY=0;entryDx=0;entryDy=0;" parent="1" source="aSrJNdCyeX4z1PQ2K5e5-30" target="aSrJNdCyeX4z1PQ2K5e5-41" edge="1">
                    <mxGeometry relative="1" as="geometry"/>
                </mxCell>
                <mxCell id="LmqjV7RejRyaaiGA6MX_-43" style="edgeStyle=orthogonalEdgeStyle;rounded=0;orthogonalLoop=1;jettySize=auto;html=1;exitX=0.5;exitY=1;exitDx=0;exitDy=0;entryX=0.5;entryY=0;entryDx=0;entryDy=0;" parent="1" source="aSrJNdCyeX4z1PQ2K5e5-30" target="aSrJNdCyeX4z1PQ2K5e5-34" edge="1">
                    <mxGeometry relative="1" as="geometry"/>
                </mxCell>
                <mxCell id="LmqjV7RejRyaaiGA6MX_-47" style="edgeStyle=orthogonalEdgeStyle;rounded=0;orthogonalLoop=1;jettySize=auto;html=1;exitX=0.5;exitY=1;exitDx=0;exitDy=0;entryX=0.5;entryY=0;entryDx=0;entryDy=0;" parent="1" source="aSrJNdCyeX4z1PQ2K5e5-30" target="LmqjV7RejRyaaiGA6MX_-44" edge="1">
                    <mxGeometry relative="1" as="geometry"/>
                </mxCell>
                <mxCell id="qzxj-ttTBUn77yOQ_jce-29" style="edgeStyle=orthogonalEdgeStyle;rounded=0;orthogonalLoop=1;jettySize=auto;html=1;exitX=0.5;exitY=1;exitDx=0;exitDy=0;" parent="1" source="aSrJNdCyeX4z1PQ2K5e5-30" target="qzxj-ttTBUn77yOQ_jce-28" edge="1">
                    <mxGeometry relative="1" as="geometry"/>
                </mxCell>
                <mxCell id="aSrJNdCyeX4z1PQ2K5e5-30" value="" style="rounded=0;whiteSpace=wrap;html=1;fillColor=#f8cecc;strokeColor=#b85450;" parent="1" vertex="1">
                    <mxGeometry x="1260" y="-350" width="120" height="10" as="geometry"/>
                </mxCell>
                <mxCell id="aSrJNdCyeX4z1PQ2K5e5-34" value="organization" style="rounded=0;whiteSpace=wrap;html=1;fillColor=#dae8fc;strokeColor=#6c8ebf;" parent="1" vertex="1">
                    <mxGeometry x="970" y="-254.5" width="120" height="65" as="geometry"/>
                </mxCell>
                <mxCell id="aSrJNdCyeX4z1PQ2K5e5-36" value="jobTitle" style="rounded=0;whiteSpace=wrap;html=1;fillColor=#dae8fc;strokeColor=#6c8ebf;" parent="1" vertex="1">
                    <mxGeometry x="1130" y="-256" width="120" height="65" as="geometry"/>
                </mxCell>
                <mxCell id="aSrJNdCyeX4z1PQ2K5e5-39" value="startTime" style="rounded=0;whiteSpace=wrap;html=1;fillColor=#dae8fc;strokeColor=#6c8ebf;" parent="1" vertex="1">
                    <mxGeometry x="1615" y="-130" width="120" height="60" as="geometry"/>
                </mxCell>
                <mxCell id="aSrJNdCyeX4z1PQ2K5e5-41" value="description" style="rounded=0;whiteSpace=wrap;html=1;fillColor=#dae8fc;strokeColor=#6c8ebf;" parent="1" vertex="1">
                    <mxGeometry x="1705" y="-256.25" width="120" height="60" as="geometry"/>
                </mxCell>
                <mxCell id="aSrJNdCyeX4z1PQ2K5e5-45" value="education" style="rounded=0;whiteSpace=wrap;html=1;fillColor=#fff2cc;strokeColor=#d6b656;" parent="1" vertex="1">
                    <mxGeometry x="2357.5" y="-410" width="120" height="60" as="geometry"/>
                </mxCell>
                <mxCell id="L1XubLALkSbKmpZ24kiv-91" style="edgeStyle=orthogonalEdgeStyle;rounded=0;orthogonalLoop=1;jettySize=auto;html=1;exitX=0.5;exitY=1;exitDx=0;exitDy=0;entryX=0.5;entryY=0;entryDx=0;entryDy=0;" parent="1" source="aSrJNdCyeX4z1PQ2K5e5-46" target="aSrJNdCyeX4z1PQ2K5e5-52" edge="1">
                    <mxGeometry relative="1" as="geometry"/>
                </mxCell>
                <mxCell id="L1XubLALkSbKmpZ24kiv-92" style="edgeStyle=orthogonalEdgeStyle;rounded=0;orthogonalLoop=1;jettySize=auto;html=1;exitX=0.5;exitY=1;exitDx=0;exitDy=0;entryX=0.5;entryY=0;entryDx=0;entryDy=0;" parent="1" source="aSrJNdCyeX4z1PQ2K5e5-46" target="aSrJNdCyeX4z1PQ2K5e5-53" edge="1">
                    <mxGeometry relative="1" as="geometry"/>
                </mxCell>
                <mxCell id="L1XubLALkSbKmpZ24kiv-93" style="edgeStyle=orthogonalEdgeStyle;rounded=0;orthogonalLoop=1;jettySize=auto;html=1;exitX=0.5;exitY=1;exitDx=0;exitDy=0;" parent="1" source="aSrJNdCyeX4z1PQ2K5e5-46" target="aSrJNdCyeX4z1PQ2K5e5-57" edge="1">
                    <mxGeometry relative="1" as="geometry"/>
                </mxCell>
                <mxCell id="L1XubLALkSbKmpZ24kiv-94" style="edgeStyle=orthogonalEdgeStyle;rounded=0;orthogonalLoop=1;jettySize=auto;html=1;exitX=0.5;exitY=1;exitDx=0;exitDy=0;entryX=0.5;entryY=0;entryDx=0;entryDy=0;" parent="1" source="aSrJNdCyeX4z1PQ2K5e5-46" target="aSrJNdCyeX4z1PQ2K5e5-65" edge="1">
                    <mxGeometry relative="1" as="geometry"/>
                </mxCell>
                <mxCell id="qzxj-ttTBUn77yOQ_jce-27" style="edgeStyle=orthogonalEdgeStyle;rounded=0;orthogonalLoop=1;jettySize=auto;html=1;exitX=0.5;exitY=1;exitDx=0;exitDy=0;entryX=0.5;entryY=0;entryDx=0;entryDy=0;" parent="1" source="aSrJNdCyeX4z1PQ2K5e5-46" target="qzxj-ttTBUn77yOQ_jce-26" edge="1">
                    <mxGeometry relative="1" as="geometry"/>
                </mxCell>
                <mxCell id="aSrJNdCyeX4z1PQ2K5e5-46" value="" style="rounded=0;whiteSpace=wrap;html=1;fillColor=#f8cecc;strokeColor=#b85450;" parent="1" vertex="1">
                    <mxGeometry x="2357.5" y="-350" width="120" height="10" as="geometry"/>
                </mxCell>
                <mxCell id="aSrJNdCyeX4z1PQ2K5e5-52" value="name" style="rounded=0;whiteSpace=wrap;html=1;fillColor=#dae8fc;strokeColor=#6c8ebf;" parent="1" vertex="1">
                    <mxGeometry x="2067.5" y="-256" width="120" height="60" as="geometry"/>
                </mxCell>
                <mxCell id="aSrJNdCyeX4z1PQ2K5e5-53" value="result" style="rounded=0;whiteSpace=wrap;html=1;fillColor=#dae8fc;strokeColor=#6c8ebf;" parent="1" vertex="1">
                    <mxGeometry x="2212.5" y="-256" width="120" height="60" as="geometry"/>
                </mxCell>
                <mxCell id="aSrJNdCyeX4z1PQ2K5e5-57" value="description" style="rounded=0;whiteSpace=wrap;html=1;fillColor=#dae8fc;strokeColor=#6c8ebf;" parent="1" vertex="1">
                    <mxGeometry x="2357.5" y="-256" width="120" height="60" as="geometry"/>
                </mxCell>
                <mxCell id="aSrJNdCyeX4z1PQ2K5e5-60" value="endTime" style="rounded=0;whiteSpace=wrap;html=1;fillColor=#dae8fc;strokeColor=#6c8ebf;" parent="1" vertex="1">
                    <mxGeometry x="1450" y="-131" width="120" height="60" as="geometry"/>
                </mxCell>
                <mxCell id="aSrJNdCyeX4z1PQ2K5e5-61" value="startTime" style="rounded=0;whiteSpace=wrap;html=1;fillColor=#dae8fc;strokeColor=#6c8ebf;" parent="1" vertex="1">
                    <mxGeometry x="2452.5" y="-133.5" width="120" height="60" as="geometry"/>
                </mxCell>
                <mxCell id="aSrJNdCyeX4z1PQ2K5e5-63" value="endTime" style="rounded=0;whiteSpace=wrap;html=1;fillColor=#dae8fc;strokeColor=#6c8ebf;" parent="1" vertex="1">
                    <mxGeometry x="2682.5" y="-133.5" width="120" height="60" as="geometry"/>
                </mxCell>
                <mxCell id="43Fq6-LTpGHueU-0Q88h-3" style="edgeStyle=orthogonalEdgeStyle;rounded=0;orthogonalLoop=1;jettySize=auto;html=1;exitX=0.5;exitY=1;exitDx=0;exitDy=0;entryX=0.5;entryY=0;entryDx=0;entryDy=0;" parent="1" source="aSrJNdCyeX4z1PQ2K5e5-65" target="aSrJNdCyeX4z1PQ2K5e5-63" edge="1">
                    <mxGeometry relative="1" as="geometry"/>
                </mxCell>
                <mxCell id="43Fq6-LTpGHueU-0Q88h-4" style="edgeStyle=orthogonalEdgeStyle;rounded=0;orthogonalLoop=1;jettySize=auto;html=1;exitX=0.5;exitY=1;exitDx=0;exitDy=0;" parent="1" source="aSrJNdCyeX4z1PQ2K5e5-65" target="aSrJNdCyeX4z1PQ2K5e5-61" edge="1">
                    <mxGeometry relative="1" as="geometry"/>
                </mxCell>
                <mxCell id="aSrJNdCyeX4z1PQ2K5e5-65" value="duration" style="rounded=0;whiteSpace=wrap;html=1;fillColor=#f8cecc;strokeColor=#b85450;" parent="1" vertex="1">
                    <mxGeometry x="2572.5" y="-256" width="120" height="60" as="geometry"/>
                </mxCell>
                <mxCell id="LmqjV7RejRyaaiGA6MX_-45" style="edgeStyle=orthogonalEdgeStyle;rounded=0;orthogonalLoop=1;jettySize=auto;html=1;exitX=0.5;exitY=1;exitDx=0;exitDy=0;entryX=0.5;entryY=0;entryDx=0;entryDy=0;" parent="1" source="aSrJNdCyeX4z1PQ2K5e5-67" target="aSrJNdCyeX4z1PQ2K5e5-60" edge="1">
                    <mxGeometry relative="1" as="geometry"/>
                </mxCell>
                <mxCell id="LmqjV7RejRyaaiGA6MX_-46" style="edgeStyle=orthogonalEdgeStyle;rounded=0;orthogonalLoop=1;jettySize=auto;html=1;exitX=0.5;exitY=1;exitDx=0;exitDy=0;entryX=0.5;entryY=0;entryDx=0;entryDy=0;" parent="1" source="aSrJNdCyeX4z1PQ2K5e5-67" target="aSrJNdCyeX4z1PQ2K5e5-39" edge="1">
                    <mxGeometry relative="1" as="geometry"/>
                </mxCell>
                <mxCell id="aSrJNdCyeX4z1PQ2K5e5-67" value="duration" style="rounded=0;whiteSpace=wrap;html=1;fillColor=#f8cecc;strokeColor=#b85450;" parent="1" vertex="1">
                    <mxGeometry x="1530" y="-256.25" width="120" height="60" as="geometry"/>
                </mxCell>
                <mxCell id="L1XubLALkSbKmpZ24kiv-38" style="edgeStyle=orthogonalEdgeStyle;rounded=0;orthogonalLoop=1;jettySize=auto;html=1;exitX=0.5;exitY=1;exitDx=0;exitDy=0;entryX=0.5;entryY=0;entryDx=0;entryDy=0;" parent="1" source="aSrJNdCyeX4z1PQ2K5e5-73" target="aSrJNdCyeX4z1PQ2K5e5-75" edge="1">
                    <mxGeometry relative="1" as="geometry"/>
                </mxCell>
                <mxCell id="L1XubLALkSbKmpZ24kiv-39" style="edgeStyle=orthogonalEdgeStyle;rounded=0;orthogonalLoop=1;jettySize=auto;html=1;exitX=0.5;exitY=1;exitDx=0;exitDy=0;entryX=0.5;entryY=0;entryDx=0;entryDy=0;" parent="1" source="aSrJNdCyeX4z1PQ2K5e5-73" target="aSrJNdCyeX4z1PQ2K5e5-78" edge="1">
                    <mxGeometry relative="1" as="geometry"/>
                </mxCell>
                <mxCell id="aSrJNdCyeX4z1PQ2K5e5-73" value="interests" style="rounded=0;whiteSpace=wrap;html=1;fillColor=#f8cecc;strokeColor=#b85450;" parent="1" vertex="1">
                    <mxGeometry x="4065" y="-411" width="120" height="60" as="geometry"/>
                </mxCell>
                <mxCell id="aSrJNdCyeX4z1PQ2K5e5-74" value="" style="rounded=0;whiteSpace=wrap;html=1;fillColor=#f8cecc;strokeColor=#b85450;" parent="1" vertex="1">
                    <mxGeometry x="3970" y="-341" width="120" as="geometry"/>
                </mxCell>
                <mxCell id="aSrJNdCyeX4z1PQ2K5e5-75" value="tags" style="rounded=0;whiteSpace=wrap;html=1;fillColor=#fff2cc;strokeColor=#d6b656;" parent="1" vertex="1">
                    <mxGeometry x="3860" y="-281" width="120" height="60" as="geometry"/>
                </mxCell>
                <mxCell id="aSrJNdCyeX4z1PQ2K5e5-76" value="" style="rounded=0;whiteSpace=wrap;html=1;fillColor=#dae8fc;strokeColor=#6c8ebf;" parent="1" vertex="1">
                    <mxGeometry x="3860" y="-221" width="120" height="10" as="geometry"/>
                </mxCell>
                <mxCell id="L1XubLALkSbKmpZ24kiv-40" style="edgeStyle=orthogonalEdgeStyle;rounded=0;orthogonalLoop=1;jettySize=auto;html=1;exitX=0.5;exitY=1;exitDx=0;exitDy=0;entryX=0.5;entryY=0;entryDx=0;entryDy=0;" parent="1" source="aSrJNdCyeX4z1PQ2K5e5-78" target="aSrJNdCyeX4z1PQ2K5e5-86" edge="1">
                    <mxGeometry relative="1" as="geometry"/>
                </mxCell>
                <mxCell id="L1XubLALkSbKmpZ24kiv-42" style="edgeStyle=orthogonalEdgeStyle;rounded=0;orthogonalLoop=1;jettySize=auto;html=1;exitX=0.5;exitY=1;exitDx=0;exitDy=0;" parent="1" source="aSrJNdCyeX4z1PQ2K5e5-78" target="aSrJNdCyeX4z1PQ2K5e5-83" edge="1">
                    <mxGeometry relative="1" as="geometry"/>
                </mxCell>
                <mxCell id="L1XubLALkSbKmpZ24kiv-43" style="edgeStyle=orthogonalEdgeStyle;rounded=0;orthogonalLoop=1;jettySize=auto;html=1;exitX=0.5;exitY=1;exitDx=0;exitDy=0;entryX=0.5;entryY=0;entryDx=0;entryDy=0;" parent="1" source="aSrJNdCyeX4z1PQ2K5e5-78" target="aSrJNdCyeX4z1PQ2K5e5-80" edge="1">
                    <mxGeometry relative="1" as="geometry"/>
                </mxCell>
                <mxCell id="aSrJNdCyeX4z1PQ2K5e5-78" value="items" style="rounded=0;whiteSpace=wrap;html=1;fillColor=#f8cecc;strokeColor=#b85450;" parent="1" vertex="1">
                    <mxGeometry x="4210" y="-279.5" width="120" height="60" as="geometry"/>
                </mxCell>
                <mxCell id="aSrJNdCyeX4z1PQ2K5e5-80" value="users" style="rounded=0;whiteSpace=wrap;html=1;fillColor=#fff2cc;strokeColor=#d6b656;" parent="1" vertex="1">
                    <mxGeometry x="4060" y="-171" width="120" height="60" as="geometry"/>
                </mxCell>
                <mxCell id="aSrJNdCyeX4z1PQ2K5e5-81" value="" style="rounded=0;whiteSpace=wrap;html=1;fillColor=#dae8fc;strokeColor=#6c8ebf;" parent="1" vertex="1">
                    <mxGeometry x="4060" y="-111" width="120" height="10" as="geometry"/>
                </mxCell>
                <mxCell id="aSrJNdCyeX4z1PQ2K5e5-83" value="pages" style="rounded=0;whiteSpace=wrap;html=1;fillColor=#fff2cc;strokeColor=#d6b656;" parent="1" vertex="1">
                    <mxGeometry x="4210" y="-171" width="120" height="60" as="geometry"/>
                </mxCell>
                <mxCell id="aSrJNdCyeX4z1PQ2K5e5-84" value="" style="rounded=0;whiteSpace=wrap;html=1;fillColor=#dae8fc;strokeColor=#6c8ebf;" parent="1" vertex="1">
                    <mxGeometry x="4210" y="-111" width="120" height="10" as="geometry"/>
                </mxCell>
                <mxCell id="aSrJNdCyeX4z1PQ2K5e5-86" value="spaces" style="rounded=0;whiteSpace=wrap;html=1;fillColor=#fff2cc;strokeColor=#d6b656;" parent="1" vertex="1">
                    <mxGeometry x="4360" y="-171" width="120" height="60" as="geometry"/>
                </mxCell>
                <mxCell id="aSrJNdCyeX4z1PQ2K5e5-87" value="" style="rounded=0;whiteSpace=wrap;html=1;fillColor=#dae8fc;strokeColor=#6c8ebf;" parent="1" vertex="1">
                    <mxGeometry x="4360" y="-111" width="120" height="10" as="geometry"/>
                </mxCell>
                <mxCell id="aSrJNdCyeX4z1PQ2K5e5-92" value="connections" style="rounded=0;whiteSpace=wrap;html=1;fillColor=#fff2cc;strokeColor=#d6b656;" parent="1" vertex="1">
                    <mxGeometry x="4540" y="-411" width="120" height="60" as="geometry"/>
                </mxCell>
                <mxCell id="aSrJNdCyeX4z1PQ2K5e5-94" value="" style="rounded=0;whiteSpace=wrap;html=1;fillColor=#dae8fc;strokeColor=#6c8ebf;" parent="1" vertex="1">
                    <mxGeometry x="4540" y="-356" width="120" height="10" as="geometry"/>
                </mxCell>
                <mxCell id="aSrJNdCyeX4z1PQ2K5e5-105" value="freeTime" style="rounded=0;whiteSpace=wrap;html=1;fillColor=#fff2cc;strokeColor=#d6b656;" parent="1" vertex="1">
                    <mxGeometry x="5200" y="-411" width="120" height="60" as="geometry"/>
                </mxCell>
                <mxCell id="LmqjV7RejRyaaiGA6MX_-116" style="edgeStyle=orthogonalEdgeStyle;rounded=0;orthogonalLoop=1;jettySize=auto;html=1;exitX=0.5;exitY=1;exitDx=0;exitDy=0;entryX=0.5;entryY=0;entryDx=0;entryDy=0;" parent="1" source="aSrJNdCyeX4z1PQ2K5e5-106" target="aSrJNdCyeX4z1PQ2K5e5-112" edge="1">
                    <mxGeometry relative="1" as="geometry"/>
                </mxCell>
                <mxCell id="LmqjV7RejRyaaiGA6MX_-117" style="edgeStyle=orthogonalEdgeStyle;rounded=0;orthogonalLoop=1;jettySize=auto;html=1;exitX=0.5;exitY=1;exitDx=0;exitDy=0;entryX=0.5;entryY=0;entryDx=0;entryDy=0;" parent="1" source="aSrJNdCyeX4z1PQ2K5e5-106" target="aSrJNdCyeX4z1PQ2K5e5-114" edge="1">
                    <mxGeometry relative="1" as="geometry"/>
                </mxCell>
                <mxCell id="LmqjV7RejRyaaiGA6MX_-118" style="edgeStyle=orthogonalEdgeStyle;rounded=0;orthogonalLoop=1;jettySize=auto;html=1;exitX=0.5;exitY=1;exitDx=0;exitDy=0;entryX=0.5;entryY=0;entryDx=0;entryDy=0;" parent="1" source="aSrJNdCyeX4z1PQ2K5e5-106" target="aSrJNdCyeX4z1PQ2K5e5-115" edge="1">
                    <mxGeometry relative="1" as="geometry"/>
                </mxCell>
                <mxCell id="aSrJNdCyeX4z1PQ2K5e5-106" value="" style="rounded=0;whiteSpace=wrap;html=1;fillColor=#f8cecc;strokeColor=#b85450;" parent="1" vertex="1">
                    <mxGeometry x="5200" y="-351" width="120" height="10" as="geometry"/>
                </mxCell>
                <mxCell id="aSrJNdCyeX4z1PQ2K5e5-107" value="weekDay" style="rounded=0;whiteSpace=wrap;html=1;fillColor=#dae8fc;strokeColor=#6c8ebf;" parent="1" vertex="1">
                    <mxGeometry x="5240" y="-153.5" width="120" height="60" as="geometry"/>
                </mxCell>
                <mxCell id="aSrJNdCyeX4z1PQ2K5e5-108" value="shortPeriods" style="rounded=0;whiteSpace=wrap;html=1;fillColor=#fff2cc;strokeColor=#d6b656;" parent="1" vertex="1">
                    <mxGeometry x="5430" y="-153.5" width="120" height="60" as="geometry"/>
                </mxCell>
                <mxCell id="XCYbp1PYaA4w4gNwhOWG-1" style="edgeStyle=orthogonalEdgeStyle;rounded=0;orthogonalLoop=1;jettySize=auto;html=1;exitX=0.5;exitY=1;exitDx=0;exitDy=0;" parent="1" source="aSrJNdCyeX4z1PQ2K5e5-109" target="aSrJNdCyeX4z1PQ2K5e5-111" edge="1">
                    <mxGeometry relative="1" as="geometry"/>
                </mxCell>
                <mxCell id="XCYbp1PYaA4w4gNwhOWG-2" style="edgeStyle=orthogonalEdgeStyle;rounded=0;orthogonalLoop=1;jettySize=auto;html=1;exitX=0.5;exitY=1;exitDx=0;exitDy=0;" parent="1" source="aSrJNdCyeX4z1PQ2K5e5-109" target="aSrJNdCyeX4z1PQ2K5e5-110" edge="1">
                    <mxGeometry relative="1" as="geometry"/>
                </mxCell>
                <mxCell id="aSrJNdCyeX4z1PQ2K5e5-109" value="" style="rounded=0;whiteSpace=wrap;html=1;fillColor=#f8cecc;strokeColor=#b85450;" parent="1" vertex="1">
                    <mxGeometry x="5430" y="-93.5" width="120" height="10" as="geometry"/>
                </mxCell>
                <mxCell id="aSrJNdCyeX4z1PQ2K5e5-110" value="start" style="rounded=0;whiteSpace=wrap;html=1;fillColor=#dae8fc;strokeColor=#6c8ebf;" parent="1" vertex="1">
                    <mxGeometry x="5340" y="-30" width="120" height="60" as="geometry"/>
                </mxCell>
                <mxCell id="aSrJNdCyeX4z1PQ2K5e5-111" value="end" style="rounded=0;whiteSpace=wrap;html=1;fillColor=#dae8fc;strokeColor=#6c8ebf;" parent="1" vertex="1">
                    <mxGeometry x="5520" y="-30" width="120" height="60" as="geometry"/>
                </mxCell>
                <mxCell id="aSrJNdCyeX4z1PQ2K5e5-112" value="startDate" style="rounded=0;whiteSpace=wrap;html=1;fillColor=#dae8fc;strokeColor=#6c8ebf;" parent="1" vertex="1">
                    <mxGeometry x="5070" y="-291" width="120" height="60" as="geometry"/>
                </mxCell>
                <mxCell id="aSrJNdCyeX4z1PQ2K5e5-114" value="endDate" style="rounded=0;whiteSpace=wrap;html=1;fillColor=#dae8fc;strokeColor=#6c8ebf;" parent="1" vertex="1">
                    <mxGeometry x="5200" y="-291" width="120" height="60" as="geometry"/>
                </mxCell>
                <mxCell id="aSrJNdCyeX4z1PQ2K5e5-115" value="weekSchedule" style="rounded=0;whiteSpace=wrap;html=1;fillColor=#fff2cc;strokeColor=#d6b656;" parent="1" vertex="1">
                    <mxGeometry x="5330" y="-291" width="120" height="60" as="geometry"/>
                </mxCell>
                <mxCell id="L1XubLALkSbKmpZ24kiv-95" style="edgeStyle=orthogonalEdgeStyle;rounded=0;orthogonalLoop=1;jettySize=auto;html=1;exitX=0.5;exitY=1;exitDx=0;exitDy=0;entryX=0.5;entryY=0;entryDx=0;entryDy=0;" parent="1" source="aSrJNdCyeX4z1PQ2K5e5-116" target="aSrJNdCyeX4z1PQ2K5e5-107" edge="1">
                    <mxGeometry relative="1" as="geometry"/>
                </mxCell>
                <mxCell id="LmqjV7RejRyaaiGA6MX_-119" style="edgeStyle=orthogonalEdgeStyle;rounded=0;orthogonalLoop=1;jettySize=auto;html=1;exitX=0.5;exitY=1;exitDx=0;exitDy=0;entryX=0.5;entryY=0;entryDx=0;entryDy=0;" parent="1" source="aSrJNdCyeX4z1PQ2K5e5-116" target="aSrJNdCyeX4z1PQ2K5e5-108" edge="1">
                    <mxGeometry relative="1" as="geometry"/>
                </mxCell>
                <mxCell id="aSrJNdCyeX4z1PQ2K5e5-116" value="" style="rounded=0;whiteSpace=wrap;html=1;fillColor=#f8cecc;strokeColor=#b85450;" parent="1" vertex="1">
                    <mxGeometry x="5330" y="-231" width="120" height="10" as="geometry"/>
                </mxCell>
                <mxCell id="L1XubLALkSbKmpZ24kiv-50" style="edgeStyle=orthogonalEdgeStyle;rounded=0;orthogonalLoop=1;jettySize=auto;html=1;exitX=0.5;exitY=1;exitDx=0;exitDy=0;entryX=0.5;entryY=0;entryDx=0;entryDy=0;" parent="1" source="aSrJNdCyeX4z1PQ2K5e5-127" target="aSrJNdCyeX4z1PQ2K5e5-128" edge="1">
                    <mxGeometry relative="1" as="geometry"/>
                </mxCell>
                <mxCell id="L1XubLALkSbKmpZ24kiv-51" style="edgeStyle=orthogonalEdgeStyle;rounded=0;orthogonalLoop=1;jettySize=auto;html=1;exitX=0.5;exitY=1;exitDx=0;exitDy=0;entryX=0.5;entryY=0;entryDx=0;entryDy=0;" parent="1" source="aSrJNdCyeX4z1PQ2K5e5-127" target="aSrJNdCyeX4z1PQ2K5e5-130" edge="1">
                    <mxGeometry relative="1" as="geometry"/>
                </mxCell>
                <mxCell id="L1XubLALkSbKmpZ24kiv-52" style="edgeStyle=orthogonalEdgeStyle;rounded=0;orthogonalLoop=1;jettySize=auto;html=1;exitX=0.5;exitY=1;exitDx=0;exitDy=0;entryX=0.5;entryY=0;entryDx=0;entryDy=0;" parent="1" source="aSrJNdCyeX4z1PQ2K5e5-127" target="aSrJNdCyeX4z1PQ2K5e5-131" edge="1">
                    <mxGeometry relative="1" as="geometry"/>
                </mxCell>
                <mxCell id="L1XubLALkSbKmpZ24kiv-53" style="edgeStyle=orthogonalEdgeStyle;rounded=0;orthogonalLoop=1;jettySize=auto;html=1;exitX=0.5;exitY=1;exitDx=0;exitDy=0;entryX=0.5;entryY=0;entryDx=0;entryDy=0;" parent="1" source="aSrJNdCyeX4z1PQ2K5e5-127" target="aSrJNdCyeX4z1PQ2K5e5-141" edge="1">
                    <mxGeometry relative="1" as="geometry"/>
                </mxCell>
                <mxCell id="L1XubLALkSbKmpZ24kiv-59" style="edgeStyle=orthogonalEdgeStyle;rounded=0;orthogonalLoop=1;jettySize=auto;html=1;exitX=0.5;exitY=1;exitDx=0;exitDy=0;entryX=0.5;entryY=0;entryDx=0;entryDy=0;" parent="1" source="aSrJNdCyeX4z1PQ2K5e5-127" target="aSrJNdCyeX4z1PQ2K5e5-164" edge="1">
                    <mxGeometry relative="1" as="geometry"/>
                </mxCell>
                <mxCell id="L1XubLALkSbKmpZ24kiv-61" style="edgeStyle=orthogonalEdgeStyle;rounded=0;orthogonalLoop=1;jettySize=auto;html=1;exitX=0.5;exitY=1;exitDx=0;exitDy=0;entryX=0.5;entryY=0;entryDx=0;entryDy=0;" parent="1" source="aSrJNdCyeX4z1PQ2K5e5-127" target="aSrJNdCyeX4z1PQ2K5e5-171" edge="1">
                    <mxGeometry relative="1" as="geometry"/>
                </mxCell>
                <mxCell id="L1XubLALkSbKmpZ24kiv-62" style="edgeStyle=orthogonalEdgeStyle;rounded=0;orthogonalLoop=1;jettySize=auto;html=1;exitX=0.5;exitY=1;exitDx=0;exitDy=0;entryX=0.5;entryY=0;entryDx=0;entryDy=0;" parent="1" source="aSrJNdCyeX4z1PQ2K5e5-127" target="aSrJNdCyeX4z1PQ2K5e5-175" edge="1">
                    <mxGeometry relative="1" as="geometry"/>
                </mxCell>
                <mxCell id="L1XubLALkSbKmpZ24kiv-63" style="edgeStyle=orthogonalEdgeStyle;rounded=0;orthogonalLoop=1;jettySize=auto;html=1;exitX=0.5;exitY=1;exitDx=0;exitDy=0;entryX=0.5;entryY=0;entryDx=0;entryDy=0;" parent="1" source="aSrJNdCyeX4z1PQ2K5e5-127" target="aSrJNdCyeX4z1PQ2K5e5-176" edge="1">
                    <mxGeometry relative="1" as="geometry"/>
                </mxCell>
                <mxCell id="L1XubLALkSbKmpZ24kiv-64" style="edgeStyle=orthogonalEdgeStyle;rounded=0;orthogonalLoop=1;jettySize=auto;html=1;exitX=0.5;exitY=1;exitDx=0;exitDy=0;entryX=0.5;entryY=0;entryDx=0;entryDy=0;" parent="1" source="aSrJNdCyeX4z1PQ2K5e5-127" target="aSrJNdCyeX4z1PQ2K5e5-179" edge="1">
                    <mxGeometry relative="1" as="geometry"/>
                </mxCell>
                <mxCell id="L1XubLALkSbKmpZ24kiv-65" style="edgeStyle=orthogonalEdgeStyle;rounded=0;orthogonalLoop=1;jettySize=auto;html=1;exitX=0.5;exitY=1;exitDx=0;exitDy=0;entryX=0.5;entryY=0;entryDx=0;entryDy=0;" parent="1" source="aSrJNdCyeX4z1PQ2K5e5-127" target="aSrJNdCyeX4z1PQ2K5e5-185" edge="1">
                    <mxGeometry relative="1" as="geometry"/>
                </mxCell>
                <mxCell id="LmqjV7RejRyaaiGA6MX_-30" style="edgeStyle=orthogonalEdgeStyle;rounded=0;orthogonalLoop=1;jettySize=auto;html=1;exitX=0.5;exitY=1;exitDx=0;exitDy=0;entryX=0.5;entryY=0;entryDx=0;entryDy=0;" parent="1" source="aSrJNdCyeX4z1PQ2K5e5-127" target="LmqjV7RejRyaaiGA6MX_-28" edge="1">
                    <mxGeometry relative="1" as="geometry"/>
                </mxCell>
                <mxCell id="LmqjV7RejRyaaiGA6MX_-250" style="edgeStyle=orthogonalEdgeStyle;rounded=0;orthogonalLoop=1;jettySize=auto;html=1;exitX=0.5;exitY=1;exitDx=0;exitDy=0;entryX=0.5;entryY=0;entryDx=0;entryDy=0;" parent="1" source="aSrJNdCyeX4z1PQ2K5e5-127" target="LmqjV7RejRyaaiGA6MX_-248" edge="1">
                    <mxGeometry relative="1" as="geometry"/>
                </mxCell>
                <mxCell id="LmqjV7RejRyaaiGA6MX_-369" style="edgeStyle=orthogonalEdgeStyle;rounded=0;orthogonalLoop=1;jettySize=auto;html=1;exitX=0.5;exitY=1;exitDx=0;exitDy=0;entryX=0.5;entryY=0;entryDx=0;entryDy=0;fontSize=15;" parent="1" source="aSrJNdCyeX4z1PQ2K5e5-127" target="LmqjV7RejRyaaiGA6MX_-368" edge="1">
                    <mxGeometry relative="1" as="geometry"/>
                </mxCell>
                <mxCell id="pImSLbBrm58Lx3eSKcX--9" style="edgeStyle=orthogonalEdgeStyle;rounded=0;orthogonalLoop=1;jettySize=auto;html=1;exitX=0.5;exitY=1;exitDx=0;exitDy=0;" parent="1" source="aSrJNdCyeX4z1PQ2K5e5-127" target="pImSLbBrm58Lx3eSKcX--8" edge="1">
                    <mxGeometry relative="1" as="geometry"/>
                </mxCell>
                <mxCell id="pImSLbBrm58Lx3eSKcX--10" style="edgeStyle=orthogonalEdgeStyle;rounded=0;orthogonalLoop=1;jettySize=auto;html=1;exitX=0.5;exitY=1;exitDx=0;exitDy=0;entryX=0.5;entryY=0;entryDx=0;entryDy=0;" parent="1" source="aSrJNdCyeX4z1PQ2K5e5-127" target="LmqjV7RejRyaaiGA6MX_-370" edge="1">
                    <mxGeometry relative="1" as="geometry"/>
                </mxCell>
                <mxCell id="ZyibqGvzmlKrrn6xm7zY-32" style="edgeStyle=orthogonalEdgeStyle;rounded=0;orthogonalLoop=1;jettySize=auto;html=1;exitX=0.5;exitY=1;exitDx=0;exitDy=0;entryX=0.5;entryY=0;entryDx=0;entryDy=0;" parent="1" source="aSrJNdCyeX4z1PQ2K5e5-127" target="ZyibqGvzmlKrrn6xm7zY-2" edge="1">
                    <mxGeometry relative="1" as="geometry"/>
                </mxCell>
                <mxCell id="ZyibqGvzmlKrrn6xm7zY-33" style="edgeStyle=orthogonalEdgeStyle;rounded=0;orthogonalLoop=1;jettySize=auto;html=1;exitX=0.5;exitY=1;exitDx=0;exitDy=0;entryX=0.5;entryY=0;entryDx=0;entryDy=0;" parent="1" source="aSrJNdCyeX4z1PQ2K5e5-127" target="ZyibqGvzmlKrrn6xm7zY-11" edge="1">
                    <mxGeometry relative="1" as="geometry"/>
                </mxCell>
                <mxCell id="ZyibqGvzmlKrrn6xm7zY-50" style="edgeStyle=orthogonalEdgeStyle;rounded=0;orthogonalLoop=1;jettySize=auto;html=1;exitX=0.5;exitY=1;exitDx=0;exitDy=0;entryX=0.5;entryY=0;entryDx=0;entryDy=0;" parent="1" source="aSrJNdCyeX4z1PQ2K5e5-127" target="ZyibqGvzmlKrrn6xm7zY-34" edge="1">
                    <mxGeometry relative="1" as="geometry"/>
                </mxCell>
                <mxCell id="aSrJNdCyeX4z1PQ2K5e5-127" value="Page" style="rounded=0;whiteSpace=wrap;html=1;fillColor=#f8cecc;strokeColor=#b85450;" parent="1" vertex="1">
                    <mxGeometry x="1060" y="50" width="120" height="60" as="geometry"/>
                </mxCell>
                <mxCell id="aSrJNdCyeX4z1PQ2K5e5-128" value="name" style="rounded=0;whiteSpace=wrap;html=1;fillColor=#dae8fc;strokeColor=#6c8ebf;" parent="1" vertex="1">
                    <mxGeometry x="-790" y="220" width="120" height="60" as="geometry"/>
                </mxCell>
                <mxCell id="aSrJNdCyeX4z1PQ2K5e5-130" value="shortName" style="rounded=0;whiteSpace=wrap;html=1;fillColor=#dae8fc;strokeColor=#6c8ebf;" parent="1" vertex="1">
                    <mxGeometry x="-610" y="220" width="120" height="60" as="geometry"/>
                </mxCell>
                <mxCell id="L1XubLALkSbKmpZ24kiv-18" style="edgeStyle=orthogonalEdgeStyle;rounded=0;orthogonalLoop=1;jettySize=auto;html=1;exitX=0.5;exitY=1;exitDx=0;exitDy=0;entryX=0.5;entryY=0;entryDx=0;entryDy=0;" parent="1" source="aSrJNdCyeX4z1PQ2K5e5-131" target="aSrJNdCyeX4z1PQ2K5e5-137" edge="1">
                    <mxGeometry relative="1" as="geometry"/>
                </mxCell>
                <mxCell id="L1XubLALkSbKmpZ24kiv-19" style="edgeStyle=orthogonalEdgeStyle;rounded=0;orthogonalLoop=1;jettySize=auto;html=1;exitX=0.5;exitY=1;exitDx=0;exitDy=0;entryX=0.5;entryY=0;entryDx=0;entryDy=0;" parent="1" source="aSrJNdCyeX4z1PQ2K5e5-131" target="aSrJNdCyeX4z1PQ2K5e5-138" edge="1">
                    <mxGeometry relative="1" as="geometry"/>
                </mxCell>
                <mxCell id="L1XubLALkSbKmpZ24kiv-20" style="edgeStyle=orthogonalEdgeStyle;rounded=0;orthogonalLoop=1;jettySize=auto;html=1;exitX=0.5;exitY=1;exitDx=0;exitDy=0;" parent="1" source="aSrJNdCyeX4z1PQ2K5e5-131" target="aSrJNdCyeX4z1PQ2K5e5-136" edge="1">
                    <mxGeometry relative="1" as="geometry"/>
                </mxCell>
                <mxCell id="L1XubLALkSbKmpZ24kiv-21" style="edgeStyle=orthogonalEdgeStyle;rounded=0;orthogonalLoop=1;jettySize=auto;html=1;exitX=0.5;exitY=1;exitDx=0;exitDy=0;entryX=0.5;entryY=0;entryDx=0;entryDy=0;" parent="1" source="aSrJNdCyeX4z1PQ2K5e5-131" target="aSrJNdCyeX4z1PQ2K5e5-133" edge="1">
                    <mxGeometry relative="1" as="geometry"/>
                </mxCell>
                <mxCell id="aSrJNdCyeX4z1PQ2K5e5-131" value="headquarter" style="rounded=0;whiteSpace=wrap;html=1;fillColor=#f8cecc;strokeColor=#b85450;" parent="1" vertex="1">
                    <mxGeometry x="220" y="220" width="120" height="60" as="geometry"/>
                </mxCell>
                <mxCell id="aSrJNdCyeX4z1PQ2K5e5-133" value="country" style="rounded=0;whiteSpace=wrap;html=1;fillColor=#dae8fc;strokeColor=#6c8ebf;" parent="1" vertex="1">
                    <mxGeometry x="30" y="340" width="120" height="60" as="geometry"/>
                </mxCell>
                <mxCell id="aSrJNdCyeX4z1PQ2K5e5-136" value="city" style="rounded=0;whiteSpace=wrap;html=1;fillColor=#dae8fc;strokeColor=#6c8ebf;" parent="1" vertex="1">
                    <mxGeometry x="160" y="340" width="120" height="60" as="geometry"/>
                </mxCell>
                <mxCell id="aSrJNdCyeX4z1PQ2K5e5-137" value="district" style="rounded=0;whiteSpace=wrap;html=1;fillColor=#dae8fc;strokeColor=#6c8ebf;" parent="1" vertex="1">
                    <mxGeometry x="290" y="340" width="120" height="60" as="geometry"/>
                </mxCell>
                <mxCell id="aSrJNdCyeX4z1PQ2K5e5-138" value="location" style="rounded=0;whiteSpace=wrap;html=1;fillColor=#dae8fc;strokeColor=#6c8ebf;" parent="1" vertex="1">
                    <mxGeometry x="420" y="340" width="120" height="60" as="geometry"/>
                </mxCell>
                <mxCell id="aSrJNdCyeX4z1PQ2K5e5-141" value="addresses" style="rounded=0;whiteSpace=wrap;html=1;fillColor=#fff2cc;strokeColor=#d6b656;" parent="1" vertex="1">
                    <mxGeometry x="800" y="220" width="120" height="60" as="geometry"/>
                </mxCell>
                <mxCell id="L1XubLALkSbKmpZ24kiv-55" style="edgeStyle=orthogonalEdgeStyle;rounded=0;orthogonalLoop=1;jettySize=auto;html=1;exitX=0.5;exitY=1;exitDx=0;exitDy=0;" parent="1" source="aSrJNdCyeX4z1PQ2K5e5-142" target="aSrJNdCyeX4z1PQ2K5e5-143" edge="1">
                    <mxGeometry relative="1" as="geometry"/>
                </mxCell>
                <mxCell id="L1XubLALkSbKmpZ24kiv-56" style="edgeStyle=orthogonalEdgeStyle;rounded=0;orthogonalLoop=1;jettySize=auto;html=1;exitX=0.5;exitY=1;exitDx=0;exitDy=0;entryX=0.5;entryY=0;entryDx=0;entryDy=0;" parent="1" source="aSrJNdCyeX4z1PQ2K5e5-142" target="aSrJNdCyeX4z1PQ2K5e5-144" edge="1">
                    <mxGeometry relative="1" as="geometry"/>
                </mxCell>
                <mxCell id="L1XubLALkSbKmpZ24kiv-57" style="edgeStyle=orthogonalEdgeStyle;rounded=0;orthogonalLoop=1;jettySize=auto;html=1;exitX=0.5;exitY=1;exitDx=0;exitDy=0;entryX=0.5;entryY=0;entryDx=0;entryDy=0;" parent="1" source="aSrJNdCyeX4z1PQ2K5e5-142" target="aSrJNdCyeX4z1PQ2K5e5-145" edge="1">
                    <mxGeometry relative="1" as="geometry"/>
                </mxCell>
                <mxCell id="L1XubLALkSbKmpZ24kiv-58" style="edgeStyle=orthogonalEdgeStyle;rounded=0;orthogonalLoop=1;jettySize=auto;html=1;exitX=0.5;exitY=1;exitDx=0;exitDy=0;entryX=0.5;entryY=0;entryDx=0;entryDy=0;" parent="1" source="aSrJNdCyeX4z1PQ2K5e5-142" target="aSrJNdCyeX4z1PQ2K5e5-146" edge="1">
                    <mxGeometry relative="1" as="geometry"/>
                </mxCell>
                <mxCell id="aSrJNdCyeX4z1PQ2K5e5-142" value="" style="rounded=0;whiteSpace=wrap;html=1;fillColor=#f8cecc;strokeColor=#b85450;" parent="1" vertex="1">
                    <mxGeometry x="800" y="280" width="120" height="10" as="geometry"/>
                </mxCell>
                <mxCell id="aSrJNdCyeX4z1PQ2K5e5-143" value="country" style="rounded=0;whiteSpace=wrap;html=1;fillColor=#dae8fc;strokeColor=#6c8ebf;" parent="1" vertex="1">
                    <mxGeometry x="600" y="340" width="120" height="60" as="geometry"/>
                </mxCell>
                <mxCell id="aSrJNdCyeX4z1PQ2K5e5-144" value="city" style="rounded=0;whiteSpace=wrap;html=1;fillColor=#dae8fc;strokeColor=#6c8ebf;" parent="1" vertex="1">
                    <mxGeometry x="740" y="340" width="120" height="60" as="geometry"/>
                </mxCell>
                <mxCell id="aSrJNdCyeX4z1PQ2K5e5-145" value="district" style="rounded=0;whiteSpace=wrap;html=1;fillColor=#dae8fc;strokeColor=#6c8ebf;" parent="1" vertex="1">
                    <mxGeometry x="880" y="340" width="120" height="60" as="geometry"/>
                </mxCell>
                <mxCell id="aSrJNdCyeX4z1PQ2K5e5-146" value="location" style="rounded=0;whiteSpace=wrap;html=1;fillColor=#dae8fc;strokeColor=#6c8ebf;" parent="1" vertex="1">
                    <mxGeometry x="1020" y="340" width="120" height="60" as="geometry"/>
                </mxCell>
                <mxCell id="aSrJNdCyeX4z1PQ2K5e5-152" value="users" style="rounded=0;whiteSpace=wrap;html=1;fillColor=#fff2cc;strokeColor=#d6b656;" parent="1" vertex="1">
                    <mxGeometry x="4640" y="-290" width="120" height="60" as="geometry"/>
                </mxCell>
                <mxCell id="aSrJNdCyeX4z1PQ2K5e5-153" value="" style="rounded=0;whiteSpace=wrap;html=1;fillColor=#dae8fc;strokeColor=#6c8ebf;" parent="1" vertex="1">
                    <mxGeometry x="4640" y="-229.5" width="120" height="10" as="geometry"/>
                </mxCell>
                <mxCell id="aSrJNdCyeX4z1PQ2K5e5-154" value="" style="rounded=0;whiteSpace=wrap;html=1;fillColor=#dae8fc;strokeColor=#6c8ebf;" parent="1" vertex="1">
                    <mxGeometry x="4780" y="-230" width="120" height="10" as="geometry"/>
                </mxCell>
                <mxCell id="aSrJNdCyeX4z1PQ2K5e5-155" value="pages" style="rounded=0;whiteSpace=wrap;html=1;fillColor=#fff2cc;strokeColor=#d6b656;" parent="1" vertex="1">
                    <mxGeometry x="4780" y="-291" width="120" height="60" as="geometry"/>
                </mxCell>
                <mxCell id="aSrJNdCyeX4z1PQ2K5e5-156" value="" style="rounded=0;whiteSpace=wrap;html=1;fillColor=#dae8fc;strokeColor=#6c8ebf;" parent="1" vertex="1">
                    <mxGeometry x="4910" y="-230" width="120" height="10" as="geometry"/>
                </mxCell>
                <mxCell id="aSrJNdCyeX4z1PQ2K5e5-157" value="spaces" style="rounded=0;whiteSpace=wrap;html=1;fillColor=#fff2cc;strokeColor=#d6b656;" parent="1" vertex="1">
                    <mxGeometry x="4910" y="-291" width="120" height="60" as="geometry"/>
                </mxCell>
                <mxCell id="aSrJNdCyeX4z1PQ2K5e5-164" value="foundationDate" style="rounded=0;whiteSpace=wrap;html=1;fillColor=#dae8fc;strokeColor=#6c8ebf;" parent="1" vertex="1">
                    <mxGeometry x="1310" y="220" width="120" height="60" as="geometry"/>
                </mxCell>
                <mxCell id="aSrJNdCyeX4z1PQ2K5e5-171" value="about" style="rounded=0;whiteSpace=wrap;html=1;fillColor=#dae8fc;strokeColor=#6c8ebf;" parent="1" vertex="1">
                    <mxGeometry x="1475" y="220" width="120" height="60" as="geometry"/>
                </mxCell>
                <mxCell id="aSrJNdCyeX4z1PQ2K5e5-175" value="organizationType" style="rounded=0;whiteSpace=wrap;html=1;fillColor=#dae8fc;strokeColor=#6c8ebf;" parent="1" vertex="1">
                    <mxGeometry x="1630" y="220" width="120" height="60" as="geometry"/>
                </mxCell>
                <mxCell id="aSrJNdCyeX4z1PQ2K5e5-176" value="industry" style="rounded=0;whiteSpace=wrap;html=1;fillColor=#dae8fc;strokeColor=#6c8ebf;" parent="1" vertex="1">
                    <mxGeometry x="1795" y="220" width="120" height="60" as="geometry"/>
                </mxCell>
                <mxCell id="aSrJNdCyeX4z1PQ2K5e5-179" value="avatar" style="rounded=0;whiteSpace=wrap;html=1;fillColor=#dae8fc;strokeColor=#6c8ebf;" parent="1" vertex="1">
                    <mxGeometry x="1950" y="220" width="120" height="60" as="geometry"/>
                </mxCell>
                <mxCell id="aSrJNdCyeX4z1PQ2K5e5-181" value="avatar" style="rounded=0;whiteSpace=wrap;html=1;fillColor=#dae8fc;strokeColor=#6c8ebf;" parent="1" vertex="1">
                    <mxGeometry x="-290" y="-410" width="120" height="60" as="geometry"/>
                </mxCell>
                <mxCell id="aSrJNdCyeX4z1PQ2K5e5-183" value="coverImage" style="rounded=0;whiteSpace=wrap;html=1;fillColor=#dae8fc;strokeColor=#6c8ebf;" parent="1" vertex="1">
                    <mxGeometry x="-450" y="-410" width="120" height="60" as="geometry"/>
                </mxCell>
                <mxCell id="aSrJNdCyeX4z1PQ2K5e5-185" value="coverImage" style="rounded=0;whiteSpace=wrap;html=1;fillColor=#dae8fc;strokeColor=#6c8ebf;" parent="1" vertex="1">
                    <mxGeometry x="2115" y="220" width="120" height="60" as="geometry"/>
                </mxCell>
                <mxCell id="L1XubLALkSbKmpZ24kiv-5" style="edgeStyle=orthogonalEdgeStyle;rounded=0;orthogonalLoop=1;jettySize=auto;html=1;exitX=0.5;exitY=1;exitDx=0;exitDy=0;entryX=0.5;entryY=0;entryDx=0;entryDy=0;" parent="1" source="L1XubLALkSbKmpZ24kiv-3" target="L1XubLALkSbKmpZ24kiv-4" edge="1">
                    <mxGeometry relative="1" as="geometry"/>
                </mxCell>
                <mxCell id="L1XubLALkSbKmpZ24kiv-24" style="edgeStyle=orthogonalEdgeStyle;rounded=0;orthogonalLoop=1;jettySize=auto;html=1;exitX=0.5;exitY=1;exitDx=0;exitDy=0;" parent="1" source="L1XubLALkSbKmpZ24kiv-3" target="L1XubLALkSbKmpZ24kiv-23" edge="1">
                    <mxGeometry relative="1" as="geometry"/>
                </mxCell>
                <mxCell id="L1XubLALkSbKmpZ24kiv-69" style="edgeStyle=orthogonalEdgeStyle;rounded=0;orthogonalLoop=1;jettySize=auto;html=1;exitX=0.5;exitY=1;exitDx=0;exitDy=0;entryX=0.5;entryY=0;entryDx=0;entryDy=0;" parent="1" source="L1XubLALkSbKmpZ24kiv-3" target="L1XubLALkSbKmpZ24kiv-68" edge="1">
                    <mxGeometry relative="1" as="geometry"/>
                </mxCell>
                <mxCell id="L1XubLALkSbKmpZ24kiv-72" style="edgeStyle=orthogonalEdgeStyle;rounded=0;orthogonalLoop=1;jettySize=auto;html=1;exitX=0.5;exitY=1;exitDx=0;exitDy=0;entryX=0.5;entryY=0;entryDx=0;entryDy=0;" parent="1" source="L1XubLALkSbKmpZ24kiv-3" target="L1XubLALkSbKmpZ24kiv-71" edge="1">
                    <mxGeometry relative="1" as="geometry"/>
                </mxCell>
                <mxCell id="L1XubLALkSbKmpZ24kiv-73" style="edgeStyle=orthogonalEdgeStyle;rounded=0;orthogonalLoop=1;jettySize=auto;html=1;exitX=0.5;exitY=1;exitDx=0;exitDy=0;entryX=0.5;entryY=0;entryDx=0;entryDy=0;" parent="1" source="L1XubLALkSbKmpZ24kiv-3" target="L1XubLALkSbKmpZ24kiv-70" edge="1">
                    <mxGeometry relative="1" as="geometry"/>
                </mxCell>
                <mxCell id="L1XubLALkSbKmpZ24kiv-76" style="edgeStyle=orthogonalEdgeStyle;rounded=0;orthogonalLoop=1;jettySize=auto;html=1;exitX=0.5;exitY=1;exitDx=0;exitDy=0;entryX=0.5;entryY=0;entryDx=0;entryDy=0;" parent="1" source="L1XubLALkSbKmpZ24kiv-3" target="L1XubLALkSbKmpZ24kiv-74" edge="1">
                    <mxGeometry relative="1" as="geometry"/>
                </mxCell>
                <mxCell id="L1XubLALkSbKmpZ24kiv-84" style="edgeStyle=orthogonalEdgeStyle;rounded=0;orthogonalLoop=1;jettySize=auto;html=1;exitX=0.5;exitY=1;exitDx=0;exitDy=0;entryX=0.5;entryY=0;entryDx=0;entryDy=0;" parent="1" source="L1XubLALkSbKmpZ24kiv-3" target="L1XubLALkSbKmpZ24kiv-82" edge="1">
                    <mxGeometry relative="1" as="geometry"/>
                </mxCell>
                <mxCell id="L1XubLALkSbKmpZ24kiv-88" style="edgeStyle=orthogonalEdgeStyle;rounded=0;orthogonalLoop=1;jettySize=auto;html=1;exitX=0.5;exitY=1;exitDx=0;exitDy=0;entryX=0.5;entryY=0;entryDx=0;entryDy=0;" parent="1" source="L1XubLALkSbKmpZ24kiv-3" target="L1XubLALkSbKmpZ24kiv-85" edge="1">
                    <mxGeometry relative="1" as="geometry"/>
                </mxCell>
                <mxCell id="L1XubLALkSbKmpZ24kiv-89" style="edgeStyle=orthogonalEdgeStyle;rounded=0;orthogonalLoop=1;jettySize=auto;html=1;exitX=0.5;exitY=1;exitDx=0;exitDy=0;entryX=0.5;entryY=0;entryDx=0;entryDy=0;" parent="1" source="L1XubLALkSbKmpZ24kiv-3" target="L1XubLALkSbKmpZ24kiv-87" edge="1">
                    <mxGeometry relative="1" as="geometry"/>
                </mxCell>
                <mxCell id="LmqjV7RejRyaaiGA6MX_-21" style="edgeStyle=orthogonalEdgeStyle;rounded=0;orthogonalLoop=1;jettySize=auto;html=1;exitX=0.5;exitY=1;exitDx=0;exitDy=0;" parent="1" source="L1XubLALkSbKmpZ24kiv-3" target="LmqjV7RejRyaaiGA6MX_-19" edge="1">
                    <mxGeometry relative="1" as="geometry"/>
                </mxCell>
                <mxCell id="LmqjV7RejRyaaiGA6MX_-86" style="edgeStyle=orthogonalEdgeStyle;rounded=0;orthogonalLoop=1;jettySize=auto;html=1;exitX=0.5;exitY=1;exitDx=0;exitDy=0;entryX=0.5;entryY=0;entryDx=0;entryDy=0;" parent="1" source="L1XubLALkSbKmpZ24kiv-3" target="LmqjV7RejRyaaiGA6MX_-85" edge="1">
                    <mxGeometry relative="1" as="geometry"/>
                </mxCell>
                <mxCell id="LmqjV7RejRyaaiGA6MX_-438" style="edgeStyle=orthogonalEdgeStyle;rounded=0;orthogonalLoop=1;jettySize=auto;html=1;exitX=0.5;exitY=1;exitDx=0;exitDy=0;entryX=0.5;entryY=0;entryDx=0;entryDy=0;fontSize=15;" parent="1" source="L1XubLALkSbKmpZ24kiv-3" target="LmqjV7RejRyaaiGA6MX_-437" edge="1">
                    <mxGeometry relative="1" as="geometry"/>
                </mxCell>
                <mxCell id="pImSLbBrm58Lx3eSKcX--5" style="edgeStyle=orthogonalEdgeStyle;rounded=0;orthogonalLoop=1;jettySize=auto;html=1;exitX=0.5;exitY=1;exitDx=0;exitDy=0;" parent="1" source="L1XubLALkSbKmpZ24kiv-3" target="pImSLbBrm58Lx3eSKcX--1" edge="1">
                    <mxGeometry relative="1" as="geometry"/>
                </mxCell>
                <mxCell id="1nMw16HngFaY3PvJWO6O-13" style="edgeStyle=orthogonalEdgeStyle;rounded=0;orthogonalLoop=1;jettySize=auto;html=1;exitX=0.5;exitY=1;exitDx=0;exitDy=0;" parent="1" source="L1XubLALkSbKmpZ24kiv-3" target="1nMw16HngFaY3PvJWO6O-12" edge="1">
                    <mxGeometry relative="1" as="geometry"/>
                </mxCell>
                <mxCell id="OrvMSEwqDPW3akcP_g01-10" style="edgeStyle=orthogonalEdgeStyle;rounded=0;orthogonalLoop=1;jettySize=auto;html=1;exitX=0.5;exitY=1;exitDx=0;exitDy=0;" parent="1" source="L1XubLALkSbKmpZ24kiv-3" target="OrvMSEwqDPW3akcP_g01-7" edge="1">
                    <mxGeometry relative="1" as="geometry"/>
                </mxCell>
                <mxCell id="L1XubLALkSbKmpZ24kiv-3" value="Offer" style="rounded=0;whiteSpace=wrap;html=1;fillColor=#f8cecc;strokeColor=#b85450;" parent="1" vertex="1">
                    <mxGeometry x="985" y="870" width="120" height="60" as="geometry"/>
                </mxCell>
                <mxCell id="L1XubLALkSbKmpZ24kiv-4" value="title" style="rounded=0;whiteSpace=wrap;html=1;fillColor=#dae8fc;strokeColor=#6c8ebf;" parent="1" vertex="1">
                    <mxGeometry x="5" y="1020" width="120" height="60" as="geometry"/>
                </mxCell>
                <mxCell id="L1XubLALkSbKmpZ24kiv-23" value="recruitmentStatus" style="rounded=0;whiteSpace=wrap;html=1;fillColor=#dae8fc;strokeColor=#6c8ebf;" parent="1" vertex="1">
                    <mxGeometry x="765" y="1020" width="120" height="60" as="geometry"/>
                </mxCell>
                <mxCell id="L1XubLALkSbKmpZ24kiv-46" style="edgeStyle=orthogonalEdgeStyle;rounded=0;orthogonalLoop=1;jettySize=auto;html=1;exitX=0.5;exitY=1;exitDx=0;exitDy=0;entryX=0.5;entryY=0;entryDx=0;entryDy=0;" parent="1" source="L1XubLALkSbKmpZ24kiv-45" target="aSrJNdCyeX4z1PQ2K5e5-152" edge="1">
                    <mxGeometry relative="1" as="geometry"/>
                </mxCell>
                <mxCell id="L1XubLALkSbKmpZ24kiv-47" style="edgeStyle=orthogonalEdgeStyle;rounded=0;orthogonalLoop=1;jettySize=auto;html=1;exitX=0.5;exitY=1;exitDx=0;exitDy=0;entryX=0.5;entryY=0;entryDx=0;entryDy=0;" parent="1" source="L1XubLALkSbKmpZ24kiv-45" target="aSrJNdCyeX4z1PQ2K5e5-155" edge="1">
                    <mxGeometry relative="1" as="geometry"/>
                </mxCell>
                <mxCell id="L1XubLALkSbKmpZ24kiv-48" style="edgeStyle=orthogonalEdgeStyle;rounded=0;orthogonalLoop=1;jettySize=auto;html=1;exitX=0.5;exitY=1;exitDx=0;exitDy=0;entryX=0.5;entryY=0;entryDx=0;entryDy=0;" parent="1" source="L1XubLALkSbKmpZ24kiv-45" target="aSrJNdCyeX4z1PQ2K5e5-157" edge="1">
                    <mxGeometry relative="1" as="geometry"/>
                </mxCell>
                <mxCell id="L1XubLALkSbKmpZ24kiv-45" value="following" style="rounded=0;whiteSpace=wrap;html=1;fillColor=#f8cecc;strokeColor=#b85450;" parent="1" vertex="1">
                    <mxGeometry x="4780" y="-411" width="120" height="60" as="geometry"/>
                </mxCell>
                <mxCell id="L1XubLALkSbKmpZ24kiv-68" value="payRange" style="rounded=0;whiteSpace=wrap;html=1;fillColor=#dae8fc;strokeColor=#6c8ebf;" parent="1" vertex="1">
                    <mxGeometry x="935" y="1020" width="120" height="60" as="geometry"/>
                </mxCell>
                <mxCell id="L1XubLALkSbKmpZ24kiv-70" value="linkToRecruitmentForm" style="rounded=0;whiteSpace=wrap;html=1;fillColor=#dae8fc;strokeColor=#6c8ebf;" parent="1" vertex="1">
                    <mxGeometry x="1095" y="1020" width="170" height="60" as="geometry"/>
                </mxCell>
                <mxCell id="L1XubLALkSbKmpZ24kiv-71" value="typeOfEmployment" style="rounded=0;whiteSpace=wrap;html=1;fillColor=#dae8fc;strokeColor=#6c8ebf;" parent="1" vertex="1">
                    <mxGeometry x="1305" y="1020" width="170" height="60" as="geometry"/>
                </mxCell>
                <mxCell id="L1XubLALkSbKmpZ24kiv-74" value="applicants" style="rounded=0;whiteSpace=wrap;html=1;fillColor=#fff2cc;strokeColor=#d6b656;" parent="1" vertex="1">
                    <mxGeometry x="1515" y="1020" width="120" height="60" as="geometry"/>
                </mxCell>
                <mxCell id="pImSLbBrm58Lx3eSKcX--3" style="edgeStyle=orthogonalEdgeStyle;rounded=0;orthogonalLoop=1;jettySize=auto;html=1;exitX=0.5;exitY=1;exitDx=0;exitDy=0;entryX=0.5;entryY=0;entryDx=0;entryDy=0;" parent="1" source="L1XubLALkSbKmpZ24kiv-75" target="LmqjV7RejRyaaiGA6MX_-351" edge="1">
                    <mxGeometry relative="1" as="geometry"/>
                </mxCell>
                <mxCell id="pImSLbBrm58Lx3eSKcX--4" style="edgeStyle=orthogonalEdgeStyle;rounded=0;orthogonalLoop=1;jettySize=auto;html=1;exitX=0.5;exitY=1;exitDx=0;exitDy=0;entryX=0.5;entryY=0;entryDx=0;entryDy=0;" parent="1" source="L1XubLALkSbKmpZ24kiv-75" target="LmqjV7RejRyaaiGA6MX_-350" edge="1">
                    <mxGeometry relative="1" as="geometry"/>
                </mxCell>
                <mxCell id="L1XubLALkSbKmpZ24kiv-75" value="" style="rounded=0;whiteSpace=wrap;html=1;fillColor=#f8cecc;strokeColor=#b85450;" parent="1" vertex="1">
                    <mxGeometry x="1515" y="1080" width="120" height="10" as="geometry"/>
                </mxCell>
                <mxCell id="L1XubLALkSbKmpZ24kiv-82" value="requirements" style="rounded=0;whiteSpace=wrap;html=1;fillColor=#fff2cc;strokeColor=#d6b656;" parent="1" vertex="1">
                    <mxGeometry x="1715" y="1020" width="120" height="60" as="geometry"/>
                </mxCell>
                <mxCell id="L1XubLALkSbKmpZ24kiv-83" value="" style="rounded=0;whiteSpace=wrap;html=1;fillColor=#dae8fc;strokeColor=#6c8ebf;" parent="1" vertex="1">
                    <mxGeometry x="1715" y="1080" width="120" height="10" as="geometry"/>
                </mxCell>
                <mxCell id="L1XubLALkSbKmpZ24kiv-85" value="benefits" style="rounded=0;whiteSpace=wrap;html=1;fillColor=#fff2cc;strokeColor=#d6b656;" parent="1" vertex="1">
                    <mxGeometry x="1905" y="1020" width="120" height="60" as="geometry"/>
                </mxCell>
                <mxCell id="L1XubLALkSbKmpZ24kiv-86" value="" style="rounded=0;whiteSpace=wrap;html=1;fillColor=#dae8fc;strokeColor=#6c8ebf;" parent="1" vertex="1">
                    <mxGeometry x="1905" y="1080" width="120" height="10" as="geometry"/>
                </mxCell>
                <mxCell id="L1XubLALkSbKmpZ24kiv-87" value="description" style="rounded=0;whiteSpace=wrap;html=1;fillColor=#dae8fc;strokeColor=#6c8ebf;" parent="1" vertex="1">
                    <mxGeometry x="2392.5" y="1020" width="120" height="60" as="geometry"/>
                </mxCell>
                <mxCell id="LmqjV7RejRyaaiGA6MX_-2" value="posts" style="rounded=0;whiteSpace=wrap;html=1;fillColor=#fff2cc;strokeColor=#d6b656;" parent="1" vertex="1">
                    <mxGeometry x="5610" y="-411" width="120" height="60" as="geometry"/>
                </mxCell>
                <mxCell id="LmqjV7RejRyaaiGA6MX_-3" value="" style="rounded=0;whiteSpace=wrap;html=1;fillColor=#dae8fc;strokeColor=#6c8ebf;" parent="1" vertex="1">
                    <mxGeometry x="5610" y="-351" width="120" height="10" as="geometry"/>
                </mxCell>
                <mxCell id="LmqjV7RejRyaaiGA6MX_-7" style="edgeStyle=orthogonalEdgeStyle;rounded=0;orthogonalLoop=1;jettySize=auto;html=1;exitX=0.5;exitY=1;exitDx=0;exitDy=0;" parent="1" source="LmqjV7RejRyaaiGA6MX_-5" edge="1">
                    <mxGeometry relative="1" as="geometry">
                        <mxPoint x="2780" y="1020" as="targetPoint"/>
                    </mxGeometry>
                </mxCell>
                <mxCell id="LmqjV7RejRyaaiGA6MX_-9" style="edgeStyle=orthogonalEdgeStyle;rounded=0;orthogonalLoop=1;jettySize=auto;html=1;exitX=0.5;exitY=1;exitDx=0;exitDy=0;entryX=0.5;entryY=0;entryDx=0;entryDy=0;" parent="1" source="LmqjV7RejRyaaiGA6MX_-5" edge="1">
                    <mxGeometry relative="1" as="geometry">
                        <mxPoint x="3130" y="1020" as="targetPoint"/>
                    </mxGeometry>
                </mxCell>
                <mxCell id="LmqjV7RejRyaaiGA6MX_-11" style="edgeStyle=orthogonalEdgeStyle;rounded=0;orthogonalLoop=1;jettySize=auto;html=1;exitX=0.5;exitY=1;exitDx=0;exitDy=0;entryX=0.5;entryY=0;entryDx=0;entryDy=0;" parent="1" source="LmqjV7RejRyaaiGA6MX_-5" edge="1">
                    <mxGeometry relative="1" as="geometry">
                        <mxPoint x="2960" y="1020" as="targetPoint"/>
                    </mxGeometry>
                </mxCell>
                <mxCell id="LmqjV7RejRyaaiGA6MX_-16" style="edgeStyle=orthogonalEdgeStyle;rounded=0;orthogonalLoop=1;jettySize=auto;html=1;exitX=0.5;exitY=1;exitDx=0;exitDy=0;entryX=0.5;entryY=0;entryDx=0;entryDy=0;" parent="1" source="LmqjV7RejRyaaiGA6MX_-5" target="LmqjV7RejRyaaiGA6MX_-15" edge="1">
                    <mxGeometry relative="1" as="geometry"/>
                </mxCell>
                <mxCell id="LmqjV7RejRyaaiGA6MX_-18" style="edgeStyle=orthogonalEdgeStyle;rounded=0;orthogonalLoop=1;jettySize=auto;html=1;exitX=0.5;exitY=1;exitDx=0;exitDy=0;entryX=0.5;entryY=0;entryDx=0;entryDy=0;" parent="1" source="LmqjV7RejRyaaiGA6MX_-5" target="LmqjV7RejRyaaiGA6MX_-17" edge="1">
                    <mxGeometry relative="1" as="geometry"/>
                </mxCell>
                <mxCell id="LmqjV7RejRyaaiGA6MX_-223" style="edgeStyle=orthogonalEdgeStyle;rounded=0;orthogonalLoop=1;jettySize=auto;html=1;exitX=0.5;exitY=1;exitDx=0;exitDy=0;entryX=0.5;entryY=0;entryDx=0;entryDy=0;" parent="1" source="LmqjV7RejRyaaiGA6MX_-5" target="LmqjV7RejRyaaiGA6MX_-219" edge="1">
                    <mxGeometry relative="1" as="geometry"/>
                </mxCell>
                <mxCell id="LmqjV7RejRyaaiGA6MX_-224" style="edgeStyle=orthogonalEdgeStyle;rounded=0;orthogonalLoop=1;jettySize=auto;html=1;exitX=0.5;exitY=1;exitDx=0;exitDy=0;entryX=0.5;entryY=0;entryDx=0;entryDy=0;" parent="1" source="LmqjV7RejRyaaiGA6MX_-5" target="LmqjV7RejRyaaiGA6MX_-221" edge="1">
                    <mxGeometry relative="1" as="geometry"/>
                </mxCell>
                <mxCell id="LmqjV7RejRyaaiGA6MX_-5" value="Post" style="rounded=0;whiteSpace=wrap;html=1;fillColor=#f8cecc;strokeColor=#b85450;" parent="1" vertex="1">
                    <mxGeometry x="3230" y="880" width="120" height="60" as="geometry"/>
                </mxCell>
                <mxCell id="LmqjV7RejRyaaiGA6MX_-12" value="owner" style="rounded=0;whiteSpace=wrap;html=1;fillColor=#dae8fc;strokeColor=#6c8ebf;" parent="1" vertex="1">
                    <mxGeometry x="2720" y="1020" width="120" height="60" as="geometry"/>
                </mxCell>
                <mxCell id="LmqjV7RejRyaaiGA6MX_-13" value="time" style="rounded=0;whiteSpace=wrap;html=1;fillColor=#dae8fc;strokeColor=#6c8ebf;" parent="1" vertex="1">
                    <mxGeometry x="2890" y="1020" width="120" height="60" as="geometry"/>
                </mxCell>
                <mxCell id="LmqjV7RejRyaaiGA6MX_-14" value="title" style="rounded=0;whiteSpace=wrap;html=1;fillColor=#dae8fc;strokeColor=#6c8ebf;" parent="1" vertex="1">
                    <mxGeometry x="3060" y="1020" width="120" height="60" as="geometry"/>
                </mxCell>
                <mxCell id="LmqjV7RejRyaaiGA6MX_-15" value="content" style="rounded=0;whiteSpace=wrap;html=1;fillColor=#dae8fc;strokeColor=#6c8ebf;" parent="1" vertex="1">
                    <mxGeometry x="3230" y="1020" width="120" height="60" as="geometry"/>
                </mxCell>
                <mxCell id="LmqjV7RejRyaaiGA6MX_-17" value="space" style="rounded=0;whiteSpace=wrap;html=1;fillColor=#dae8fc;strokeColor=#6c8ebf;" parent="1" vertex="1">
                    <mxGeometry x="3400" y="1020" width="120" height="60" as="geometry"/>
                </mxCell>
                <mxCell id="LmqjV7RejRyaaiGA6MX_-19" value="department" style="rounded=0;whiteSpace=wrap;html=1;fillColor=#dae8fc;strokeColor=#6c8ebf;" parent="1" vertex="1">
                    <mxGeometry x="195" y="1020" width="120" height="60" as="geometry"/>
                </mxCell>
                <mxCell id="LmqjV7RejRyaaiGA6MX_-25" style="edgeStyle=orthogonalEdgeStyle;rounded=0;orthogonalLoop=1;jettySize=auto;html=1;exitX=0.5;exitY=0;exitDx=0;exitDy=0;entryX=0.5;entryY=1;entryDx=0;entryDy=0;" parent="1" source="LmqjV7RejRyaaiGA6MX_-22" target="LmqjV7RejRyaaiGA6MX_-19" edge="1">
                    <mxGeometry relative="1" as="geometry"/>
                </mxCell>
                <mxCell id="LmqjV7RejRyaaiGA6MX_-22" value="Select Department:&lt;br&gt;- Content&lt;br&gt;- Event&lt;br&gt;- Logistics&lt;br&gt;- Others: ..." style="text;html=1;strokeColor=none;fillColor=none;align=center;verticalAlign=middle;whiteSpace=wrap;rounded=0;" parent="1" vertex="1">
                    <mxGeometry x="195" y="1120" width="120" height="100" as="geometry"/>
                </mxCell>
                <mxCell id="LmqjV7RejRyaaiGA6MX_-36" style="edgeStyle=orthogonalEdgeStyle;rounded=0;orthogonalLoop=1;jettySize=auto;html=1;exitX=0.5;exitY=1;exitDx=0;exitDy=0;entryX=0.5;entryY=0;entryDx=0;entryDy=0;" parent="1" source="LmqjV7RejRyaaiGA6MX_-26" target="LmqjV7RejRyaaiGA6MX_-35" edge="1">
                    <mxGeometry relative="1" as="geometry"/>
                </mxCell>
                <mxCell id="LmqjV7RejRyaaiGA6MX_-37" style="edgeStyle=orthogonalEdgeStyle;rounded=0;orthogonalLoop=1;jettySize=auto;html=1;exitX=0.5;exitY=1;exitDx=0;exitDy=0;entryX=0.5;entryY=0;entryDx=0;entryDy=0;" parent="1" source="LmqjV7RejRyaaiGA6MX_-26" target="LmqjV7RejRyaaiGA6MX_-34" edge="1">
                    <mxGeometry relative="1" as="geometry"/>
                </mxCell>
                <mxCell id="LmqjV7RejRyaaiGA6MX_-39" style="edgeStyle=orthogonalEdgeStyle;rounded=0;orthogonalLoop=1;jettySize=auto;html=1;exitX=0.5;exitY=1;exitDx=0;exitDy=0;entryX=0.5;entryY=0;entryDx=0;entryDy=0;" parent="1" source="LmqjV7RejRyaaiGA6MX_-26" target="LmqjV7RejRyaaiGA6MX_-38" edge="1">
                    <mxGeometry relative="1" as="geometry"/>
                </mxCell>
                <mxCell id="LmqjV7RejRyaaiGA6MX_-51" style="edgeStyle=orthogonalEdgeStyle;rounded=0;orthogonalLoop=1;jettySize=auto;html=1;exitX=0.5;exitY=1;exitDx=0;exitDy=0;entryX=0.5;entryY=0;entryDx=0;entryDy=0;" parent="1" source="LmqjV7RejRyaaiGA6MX_-26" target="LmqjV7RejRyaaiGA6MX_-50" edge="1">
                    <mxGeometry relative="1" as="geometry"/>
                </mxCell>
                <mxCell id="LmqjV7RejRyaaiGA6MX_-56" style="edgeStyle=orthogonalEdgeStyle;rounded=0;orthogonalLoop=1;jettySize=auto;html=1;exitX=0.5;exitY=1;exitDx=0;exitDy=0;entryX=0.5;entryY=0;entryDx=0;entryDy=0;" parent="1" source="LmqjV7RejRyaaiGA6MX_-26" target="LmqjV7RejRyaaiGA6MX_-54" edge="1">
                    <mxGeometry relative="1" as="geometry"/>
                </mxCell>
                <mxCell id="LmqjV7RejRyaaiGA6MX_-441" style="edgeStyle=orthogonalEdgeStyle;rounded=0;orthogonalLoop=1;jettySize=auto;html=1;exitX=0.5;exitY=1;exitDx=0;exitDy=0;entryX=0.5;entryY=0;entryDx=0;entryDy=0;fontSize=15;" parent="1" source="LmqjV7RejRyaaiGA6MX_-26" target="LmqjV7RejRyaaiGA6MX_-440" edge="1">
                    <mxGeometry relative="1" as="geometry"/>
                </mxCell>
                <mxCell id="LmqjV7RejRyaaiGA6MX_-26" value="Space" style="rounded=0;whiteSpace=wrap;html=1;fillColor=#f8cecc;strokeColor=#b85450;" parent="1" vertex="1">
                    <mxGeometry x="1450" y="1350" width="120" height="60" as="geometry"/>
                </mxCell>
                <mxCell id="LmqjV7RejRyaaiGA6MX_-28" value="offers" style="rounded=0;whiteSpace=wrap;html=1;fillColor=#fff2cc;strokeColor=#d6b656;" parent="1" vertex="1">
                    <mxGeometry x="2830" y="220" width="120" height="60" as="geometry"/>
                </mxCell>
                <mxCell id="LmqjV7RejRyaaiGA6MX_-29" value="" style="rounded=0;whiteSpace=wrap;html=1;fillColor=#dae8fc;strokeColor=#6c8ebf;" parent="1" vertex="1">
                    <mxGeometry x="2830" y="280" width="120" height="10" as="geometry"/>
                </mxCell>
                <mxCell id="LmqjV7RejRyaaiGA6MX_-31" value="offers" style="rounded=0;whiteSpace=wrap;html=1;fillColor=#fff2cc;strokeColor=#d6b656;" parent="1" vertex="1">
                    <mxGeometry x="5800" y="-411" width="120" height="60" as="geometry"/>
                </mxCell>
                <mxCell id="LmqjV7RejRyaaiGA6MX_-32" value="" style="rounded=0;whiteSpace=wrap;html=1;fillColor=#dae8fc;strokeColor=#6c8ebf;" parent="1" vertex="1">
                    <mxGeometry x="5800" y="-351" width="120" height="10" as="geometry"/>
                </mxCell>
                <mxCell id="LmqjV7RejRyaaiGA6MX_-34" value="fullName" style="rounded=0;whiteSpace=wrap;html=1;fillColor=#dae8fc;strokeColor=#6c8ebf;" parent="1" vertex="1">
                    <mxGeometry x="1020" y="1490" width="120" height="60" as="geometry"/>
                </mxCell>
                <mxCell id="LmqjV7RejRyaaiGA6MX_-35" value="shortName" style="rounded=0;whiteSpace=wrap;html=1;fillColor=#dae8fc;strokeColor=#6c8ebf;" parent="1" vertex="1">
                    <mxGeometry x="1180" y="1491.5" width="120" height="60" as="geometry"/>
                </mxCell>
                <mxCell id="LmqjV7RejRyaaiGA6MX_-38" value="about" style="rounded=0;whiteSpace=wrap;html=1;fillColor=#dae8fc;strokeColor=#6c8ebf;" parent="1" vertex="1">
                    <mxGeometry x="1520" y="1490" width="120" height="60" as="geometry"/>
                </mxCell>
                <mxCell id="LmqjV7RejRyaaiGA6MX_-44" value="employmentType" style="rounded=0;whiteSpace=wrap;html=1;fillColor=#dae8fc;strokeColor=#6c8ebf;" parent="1" vertex="1">
                    <mxGeometry x="1300" y="-256.25" width="120" height="62.5" as="geometry"/>
                </mxCell>
                <mxCell id="LmqjV7RejRyaaiGA6MX_-49" style="edgeStyle=orthogonalEdgeStyle;rounded=0;orthogonalLoop=1;jettySize=auto;html=1;exitX=0.5;exitY=0;exitDx=0;exitDy=0;entryX=0.5;entryY=1;entryDx=0;entryDy=0;" parent="1" source="LmqjV7RejRyaaiGA6MX_-48" target="LmqjV7RejRyaaiGA6MX_-44" edge="1">
                    <mxGeometry relative="1" as="geometry"/>
                </mxCell>
                <mxCell id="LmqjV7RejRyaaiGA6MX_-48" value="full-time&lt;br&gt;part-time&lt;br&gt;self-employed&lt;br&gt;freelance&lt;br&gt;contract&lt;br&gt;internship&lt;br&gt;apprenticeship&lt;br&gt;seasonal" style="text;html=1;strokeColor=none;fillColor=none;align=center;verticalAlign=middle;whiteSpace=wrap;rounded=0;" parent="1" vertex="1">
                    <mxGeometry x="1280" y="-150" width="160" height="120" as="geometry"/>
                </mxCell>
                <mxCell id="LmqjV7RejRyaaiGA6MX_-50" value="creationDate" style="rounded=0;whiteSpace=wrap;html=1;fillColor=#dae8fc;strokeColor=#6c8ebf;" parent="1" vertex="1">
                    <mxGeometry x="1735" y="1491.5" width="120" height="60" as="geometry"/>
                </mxCell>
                <mxCell id="LmqjV7RejRyaaiGA6MX_-54" value="members" style="rounded=0;whiteSpace=wrap;html=1;fillColor=#fff2cc;strokeColor=#d6b656;" parent="1" vertex="1">
                    <mxGeometry x="1915" y="1491.5" width="120" height="60" as="geometry"/>
                </mxCell>
                <mxCell id="LmqjV7RejRyaaiGA6MX_-59" style="edgeStyle=orthogonalEdgeStyle;rounded=0;orthogonalLoop=1;jettySize=auto;html=1;exitX=0.5;exitY=1;exitDx=0;exitDy=0;entryX=0.5;entryY=0;entryDx=0;entryDy=0;" parent="1" source="LmqjV7RejRyaaiGA6MX_-55" target="LmqjV7RejRyaaiGA6MX_-58" edge="1">
                    <mxGeometry relative="1" as="geometry"/>
                </mxCell>
                <mxCell id="LmqjV7RejRyaaiGA6MX_-60" style="edgeStyle=orthogonalEdgeStyle;rounded=0;orthogonalLoop=1;jettySize=auto;html=1;exitX=0.5;exitY=1;exitDx=0;exitDy=0;entryX=0.5;entryY=0;entryDx=0;entryDy=0;" parent="1" source="LmqjV7RejRyaaiGA6MX_-55" target="LmqjV7RejRyaaiGA6MX_-57" edge="1">
                    <mxGeometry relative="1" as="geometry"/>
                </mxCell>
                <mxCell id="LmqjV7RejRyaaiGA6MX_-55" value="" style="rounded=0;whiteSpace=wrap;html=1;fillColor=#f8cecc;strokeColor=#b85450;" parent="1" vertex="1">
                    <mxGeometry x="1915" y="1551.5" width="120" height="10" as="geometry"/>
                </mxCell>
                <mxCell id="LmqjV7RejRyaaiGA6MX_-57" value="id" style="rounded=0;whiteSpace=wrap;html=1;fillColor=#dae8fc;strokeColor=#6c8ebf;" parent="1" vertex="1">
                    <mxGeometry x="1825" y="1611.5" width="120" height="60" as="geometry"/>
                </mxCell>
                <mxCell id="LmqjV7RejRyaaiGA6MX_-58" value="role" style="rounded=0;whiteSpace=wrap;html=1;fillColor=#dae8fc;strokeColor=#6c8ebf;" parent="1" vertex="1">
                    <mxGeometry x="2005" y="1611.5" width="120" height="60" as="geometry"/>
                </mxCell>
                <mxCell id="LmqjV7RejRyaaiGA6MX_-64" value="status" style="rounded=0;whiteSpace=wrap;html=1;fillColor=#dae8fc;strokeColor=#6c8ebf;" parent="1" vertex="1">
                    <mxGeometry x="6030" y="-411" width="120" height="60" as="geometry"/>
                </mxCell>
                <mxCell id="LmqjV7RejRyaaiGA6MX_-67" style="edgeStyle=orthogonalEdgeStyle;rounded=0;orthogonalLoop=1;jettySize=auto;html=1;exitX=0.5;exitY=0;exitDx=0;exitDy=0;entryX=0.5;entryY=1;entryDx=0;entryDy=0;" parent="1" source="LmqjV7RejRyaaiGA6MX_-66" target="LmqjV7RejRyaaiGA6MX_-64" edge="1">
                    <mxGeometry relative="1" as="geometry"/>
                </mxCell>
                <mxCell id="LmqjV7RejRyaaiGA6MX_-66" value="online/offline" style="text;html=1;strokeColor=none;fillColor=none;align=center;verticalAlign=middle;whiteSpace=wrap;rounded=0;" parent="1" vertex="1">
                    <mxGeometry x="6035" y="-314.5" width="110" height="35" as="geometry"/>
                </mxCell>
                <mxCell id="LmqjV7RejRyaaiGA6MX_-85" value="owner" style="rounded=0;whiteSpace=wrap;html=1;fillColor=#dae8fc;strokeColor=#6c8ebf;" parent="1" vertex="1">
                    <mxGeometry x="-180" y="1020" width="120" height="60" as="geometry"/>
                </mxCell>
                <mxCell id="LmqjV7RejRyaaiGA6MX_-109" value="content" style="rounded=0;whiteSpace=wrap;html=1;fillColor=#dae8fc;strokeColor=#6c8ebf;" parent="1" vertex="1">
                    <mxGeometry x="6400" y="-234.5" width="120" height="60" as="geometry"/>
                </mxCell>
                <mxCell id="LmqjV7RejRyaaiGA6MX_-111" value="time" style="rounded=0;whiteSpace=wrap;html=1;fillColor=#dae8fc;strokeColor=#6c8ebf;" parent="1" vertex="1">
                    <mxGeometry x="6760" y="-234.5" width="120" height="60" as="geometry"/>
                </mxCell>
                <mxCell id="LmqjV7RejRyaaiGA6MX_-219" value="upvotes" style="rounded=0;whiteSpace=wrap;html=1;fillColor=#fff2cc;strokeColor=#d6b656;" parent="1" vertex="1">
                    <mxGeometry x="3580" y="1020" width="120" height="60" as="geometry"/>
                </mxCell>
                <mxCell id="LmqjV7RejRyaaiGA6MX_-220" value="" style="rounded=0;whiteSpace=wrap;html=1;fillColor=#dae8fc;strokeColor=#6c8ebf;" parent="1" vertex="1">
                    <mxGeometry x="3580" y="1080" width="120" height="10" as="geometry"/>
                </mxCell>
                <mxCell id="LmqjV7RejRyaaiGA6MX_-221" value="downvotes" style="rounded=0;whiteSpace=wrap;html=1;fillColor=#fff2cc;strokeColor=#d6b656;" parent="1" vertex="1">
                    <mxGeometry x="3760" y="1020" width="120" height="60" as="geometry"/>
                </mxCell>
                <mxCell id="LmqjV7RejRyaaiGA6MX_-222" value="" style="rounded=0;whiteSpace=wrap;html=1;fillColor=#dae8fc;strokeColor=#6c8ebf;" parent="1" vertex="1">
                    <mxGeometry x="3760" y="1080" width="120" height="10" as="geometry"/>
                </mxCell>
                <mxCell id="LmqjV7RejRyaaiGA6MX_-225" value="source" style="rounded=0;whiteSpace=wrap;html=1;fillColor=#dae8fc;strokeColor=#6c8ebf;" parent="1" vertex="1">
                    <mxGeometry x="6220" y="-234.5" width="120" height="60" as="geometry"/>
                </mxCell>
                <mxCell id="LmqjV7RejRyaaiGA6MX_-231" style="edgeStyle=orthogonalEdgeStyle;rounded=0;orthogonalLoop=1;jettySize=auto;html=1;exitX=0.5;exitY=1;exitDx=0;exitDy=0;" parent="1" source="LmqjV7RejRyaaiGA6MX_-226" target="LmqjV7RejRyaaiGA6MX_-225" edge="1">
                    <mxGeometry relative="1" as="geometry"/>
                </mxCell>
                <mxCell id="LmqjV7RejRyaaiGA6MX_-232" style="edgeStyle=orthogonalEdgeStyle;rounded=0;orthogonalLoop=1;jettySize=auto;html=1;exitX=0.5;exitY=1;exitDx=0;exitDy=0;entryX=0.5;entryY=0;entryDx=0;entryDy=0;" parent="1" source="LmqjV7RejRyaaiGA6MX_-226" target="LmqjV7RejRyaaiGA6MX_-109" edge="1">
                    <mxGeometry relative="1" as="geometry"/>
                </mxCell>
                <mxCell id="LmqjV7RejRyaaiGA6MX_-233" style="edgeStyle=orthogonalEdgeStyle;rounded=0;orthogonalLoop=1;jettySize=auto;html=1;exitX=0.5;exitY=1;exitDx=0;exitDy=0;entryX=0.5;entryY=0;entryDx=0;entryDy=0;" parent="1" source="LmqjV7RejRyaaiGA6MX_-226" target="LmqjV7RejRyaaiGA6MX_-110" edge="1">
                    <mxGeometry relative="1" as="geometry"/>
                </mxCell>
                <mxCell id="LmqjV7RejRyaaiGA6MX_-237" style="edgeStyle=orthogonalEdgeStyle;rounded=0;orthogonalLoop=1;jettySize=auto;html=1;exitX=0.5;exitY=1;exitDx=0;exitDy=0;" parent="1" source="LmqjV7RejRyaaiGA6MX_-226" target="LmqjV7RejRyaaiGA6MX_-111" edge="1">
                    <mxGeometry relative="1" as="geometry"/>
                </mxCell>
                <mxCell id="LmqjV7RejRyaaiGA6MX_-226" value="" style="rounded=0;whiteSpace=wrap;html=1;fillColor=#f8cecc;strokeColor=#b85450;" parent="1" vertex="1">
                    <mxGeometry x="6490" y="-351" width="120" height="10" as="geometry"/>
                </mxCell>
                <mxCell id="LmqjV7RejRyaaiGA6MX_-230" style="edgeStyle=orthogonalEdgeStyle;rounded=0;orthogonalLoop=1;jettySize=auto;html=1;exitX=0.5;exitY=0;exitDx=0;exitDy=0;" parent="1" source="LmqjV7RejRyaaiGA6MX_-229" target="LmqjV7RejRyaaiGA6MX_-225" edge="1">
                    <mxGeometry relative="1" as="geometry"/>
                </mxCell>
                <mxCell id="LmqjV7RejRyaaiGA6MX_-229" value="subject of the noti" style="text;html=1;strokeColor=none;fillColor=none;align=center;verticalAlign=middle;whiteSpace=wrap;rounded=0;" parent="1" vertex="1">
                    <mxGeometry x="6225" y="-153.5" width="110" height="35" as="geometry"/>
                </mxCell>
                <mxCell id="LmqjV7RejRyaaiGA6MX_-106" value="notifications" style="rounded=0;whiteSpace=wrap;html=1;fillColor=#fff2cc;strokeColor=#d6b656;" parent="1" vertex="1">
                    <mxGeometry x="6490" y="-411" width="120" height="60" as="geometry"/>
                </mxCell>
                <mxCell id="LmqjV7RejRyaaiGA6MX_-110" value="link" style="rounded=0;whiteSpace=wrap;html=1;fillColor=#dae8fc;strokeColor=#6c8ebf;" parent="1" vertex="1">
                    <mxGeometry x="6580" y="-234.5" width="120" height="60" as="geometry"/>
                </mxCell>
                <mxCell id="LmqjV7RejRyaaiGA6MX_-238" value="content" style="rounded=0;whiteSpace=wrap;html=1;fillColor=#dae8fc;strokeColor=#6c8ebf;" parent="1" vertex="1">
                    <mxGeometry x="3220" y="391.5" width="120" height="60" as="geometry"/>
                </mxCell>
                <mxCell id="LmqjV7RejRyaaiGA6MX_-239" value="time" style="rounded=0;whiteSpace=wrap;html=1;fillColor=#dae8fc;strokeColor=#6c8ebf;" parent="1" vertex="1">
                    <mxGeometry x="3580" y="391.5" width="120" height="60" as="geometry"/>
                </mxCell>
                <mxCell id="LmqjV7RejRyaaiGA6MX_-240" value="source" style="rounded=0;whiteSpace=wrap;html=1;fillColor=#dae8fc;strokeColor=#6c8ebf;" parent="1" vertex="1">
                    <mxGeometry x="3040" y="391.5" width="120" height="60" as="geometry"/>
                </mxCell>
                <mxCell id="LmqjV7RejRyaaiGA6MX_-241" style="edgeStyle=orthogonalEdgeStyle;rounded=0;orthogonalLoop=1;jettySize=auto;html=1;exitX=0.5;exitY=1;exitDx=0;exitDy=0;" parent="1" source="LmqjV7RejRyaaiGA6MX_-245" target="LmqjV7RejRyaaiGA6MX_-240" edge="1">
                    <mxGeometry relative="1" as="geometry"/>
                </mxCell>
                <mxCell id="LmqjV7RejRyaaiGA6MX_-242" style="edgeStyle=orthogonalEdgeStyle;rounded=0;orthogonalLoop=1;jettySize=auto;html=1;exitX=0.5;exitY=1;exitDx=0;exitDy=0;entryX=0.5;entryY=0;entryDx=0;entryDy=0;" parent="1" source="LmqjV7RejRyaaiGA6MX_-245" target="LmqjV7RejRyaaiGA6MX_-238" edge="1">
                    <mxGeometry relative="1" as="geometry"/>
                </mxCell>
                <mxCell id="LmqjV7RejRyaaiGA6MX_-243" style="edgeStyle=orthogonalEdgeStyle;rounded=0;orthogonalLoop=1;jettySize=auto;html=1;exitX=0.5;exitY=1;exitDx=0;exitDy=0;entryX=0.5;entryY=0;entryDx=0;entryDy=0;" parent="1" source="LmqjV7RejRyaaiGA6MX_-245" target="LmqjV7RejRyaaiGA6MX_-249" edge="1">
                    <mxGeometry relative="1" as="geometry"/>
                </mxCell>
                <mxCell id="LmqjV7RejRyaaiGA6MX_-244" style="edgeStyle=orthogonalEdgeStyle;rounded=0;orthogonalLoop=1;jettySize=auto;html=1;exitX=0.5;exitY=1;exitDx=0;exitDy=0;" parent="1" source="LmqjV7RejRyaaiGA6MX_-245" target="LmqjV7RejRyaaiGA6MX_-239" edge="1">
                    <mxGeometry relative="1" as="geometry"/>
                </mxCell>
                <mxCell id="LmqjV7RejRyaaiGA6MX_-245" value="" style="rounded=0;whiteSpace=wrap;html=1;fillColor=#f8cecc;strokeColor=#b85450;" parent="1" vertex="1">
                    <mxGeometry x="3310" y="280" width="120" height="10" as="geometry"/>
                </mxCell>
                <mxCell id="LmqjV7RejRyaaiGA6MX_-246" style="edgeStyle=orthogonalEdgeStyle;rounded=0;orthogonalLoop=1;jettySize=auto;html=1;exitX=0.5;exitY=0;exitDx=0;exitDy=0;" parent="1" source="LmqjV7RejRyaaiGA6MX_-247" target="LmqjV7RejRyaaiGA6MX_-240" edge="1">
                    <mxGeometry relative="1" as="geometry"/>
                </mxCell>
                <mxCell id="LmqjV7RejRyaaiGA6MX_-247" value="subject of the noti" style="text;html=1;strokeColor=none;fillColor=none;align=center;verticalAlign=middle;whiteSpace=wrap;rounded=0;" parent="1" vertex="1">
                    <mxGeometry x="3045" y="472.5" width="110" height="35" as="geometry"/>
                </mxCell>
                <mxCell id="LmqjV7RejRyaaiGA6MX_-248" value="notifications" style="rounded=0;whiteSpace=wrap;html=1;fillColor=#fff2cc;strokeColor=#d6b656;" parent="1" vertex="1">
                    <mxGeometry x="3310" y="220" width="120" height="60" as="geometry"/>
                </mxCell>
                <mxCell id="LmqjV7RejRyaaiGA6MX_-249" value="link" style="rounded=0;whiteSpace=wrap;html=1;fillColor=#dae8fc;strokeColor=#6c8ebf;" parent="1" vertex="1">
                    <mxGeometry x="3400" y="391.5" width="120" height="60" as="geometry"/>
                </mxCell>
                <mxCell id="LmqjV7RejRyaaiGA6MX_-251" value="role" style="rounded=0;whiteSpace=wrap;html=1;fillColor=#dae8fc;strokeColor=#6c8ebf;" parent="1" vertex="1">
                    <mxGeometry x="7370" y="-411" width="120" height="60" as="geometry"/>
                </mxCell>
                <mxCell id="LmqjV7RejRyaaiGA6MX_-261" value="id" style="rounded=0;whiteSpace=wrap;html=1;fillColor=#dae8fc;strokeColor=#6c8ebf;" parent="1" vertex="1">
                    <mxGeometry x="2400" y="1490" width="120" height="60" as="geometry"/>
                </mxCell>
                <mxCell id="LmqjV7RejRyaaiGA6MX_-264" value="reporterID" style="rounded=0;whiteSpace=wrap;html=1;fillColor=#dae8fc;strokeColor=#6c8ebf;" parent="1" vertex="1">
                    <mxGeometry x="2570" y="1490" width="120" height="60" as="geometry"/>
                </mxCell>
                <mxCell id="LmqjV7RejRyaaiGA6MX_-265" value="timeOfReport" style="rounded=0;whiteSpace=wrap;html=1;fillColor=#dae8fc;strokeColor=#6c8ebf;" parent="1" vertex="1">
                    <mxGeometry x="2740" y="1490" width="120" height="60" as="geometry"/>
                </mxCell>
                <mxCell id="LmqjV7RejRyaaiGA6MX_-267" value="content" style="rounded=0;whiteSpace=wrap;html=1;fillColor=#dae8fc;strokeColor=#6c8ebf;" parent="1" vertex="1">
                    <mxGeometry x="3080" y="1490" width="120" height="60" as="geometry"/>
                </mxCell>
                <mxCell id="LmqjV7RejRyaaiGA6MX_-268" value="category" style="rounded=0;whiteSpace=wrap;html=1;fillColor=#dae8fc;strokeColor=#6c8ebf;" parent="1" vertex="1">
                    <mxGeometry x="2910" y="1490" width="120" height="60" as="geometry"/>
                </mxCell>
                <mxCell id="LmqjV7RejRyaaiGA6MX_-350" value="id" style="rounded=0;whiteSpace=wrap;html=1;fillColor=#dae8fc;strokeColor=#6c8ebf;" parent="1" vertex="1">
                    <mxGeometry x="1400" y="1170" width="120" height="60" as="geometry"/>
                </mxCell>
                <mxCell id="LmqjV7RejRyaaiGA6MX_-351" value="status" style="rounded=0;whiteSpace=wrap;html=1;fillColor=#dae8fc;strokeColor=#6c8ebf;" parent="1" vertex="1">
                    <mxGeometry x="1615" y="1170" width="120" height="60" as="geometry"/>
                </mxCell>
                <mxCell id="LmqjV7RejRyaaiGA6MX_-386" style="edgeStyle=orthogonalEdgeStyle;rounded=0;orthogonalLoop=1;jettySize=auto;html=1;exitX=0.5;exitY=1;exitDx=0;exitDy=0;fontSize=15;" parent="1" source="LmqjV7RejRyaaiGA6MX_-354" target="LmqjV7RejRyaaiGA6MX_-384" edge="1">
                    <mxGeometry relative="1" as="geometry"/>
                </mxCell>
                <mxCell id="LmqjV7RejRyaaiGA6MX_-387" style="edgeStyle=orthogonalEdgeStyle;rounded=0;orthogonalLoop=1;jettySize=auto;html=1;exitX=0.5;exitY=1;exitDx=0;exitDy=0;entryX=0.5;entryY=0;entryDx=0;entryDy=0;fontSize=15;" parent="1" source="LmqjV7RejRyaaiGA6MX_-354" target="LmqjV7RejRyaaiGA6MX_-383" edge="1">
                    <mxGeometry relative="1" as="geometry"/>
                </mxCell>
                <mxCell id="LmqjV7RejRyaaiGA6MX_-388" style="edgeStyle=orthogonalEdgeStyle;rounded=0;orthogonalLoop=1;jettySize=auto;html=1;exitX=0.5;exitY=1;exitDx=0;exitDy=0;fontSize=15;" parent="1" source="LmqjV7RejRyaaiGA6MX_-354" target="LmqjV7RejRyaaiGA6MX_-385" edge="1">
                    <mxGeometry relative="1" as="geometry"/>
                </mxCell>
                <mxCell id="LmqjV7RejRyaaiGA6MX_-354" value="Role" style="rounded=0;whiteSpace=wrap;html=1;fillColor=#f8cecc;strokeColor=#b85450;" parent="1" vertex="1">
                    <mxGeometry x="270" y="1300" width="120" height="60" as="geometry"/>
                </mxCell>
                <mxCell id="LmqjV7RejRyaaiGA6MX_-368" value="creator" style="rounded=0;whiteSpace=wrap;html=1;fillColor=#dae8fc;strokeColor=#6c8ebf;" parent="1" vertex="1">
                    <mxGeometry x="-425" y="220" width="120" height="60" as="geometry"/>
                </mxCell>
                <mxCell id="LmqjV7RejRyaaiGA6MX_-370" value="members" style="rounded=0;whiteSpace=wrap;html=1;fillColor=#fff2cc;strokeColor=#d6b656;" parent="1" vertex="1">
                    <mxGeometry x="-230" y="220" width="120" height="60" as="geometry"/>
                </mxCell>
                <mxCell id="LmqjV7RejRyaaiGA6MX_-375" style="edgeStyle=orthogonalEdgeStyle;rounded=0;orthogonalLoop=1;jettySize=auto;html=1;exitX=0.5;exitY=1;exitDx=0;exitDy=0;fontSize=15;" parent="1" source="LmqjV7RejRyaaiGA6MX_-372" target="LmqjV7RejRyaaiGA6MX_-374" edge="1">
                    <mxGeometry relative="1" as="geometry"/>
                </mxCell>
                <mxCell id="LmqjV7RejRyaaiGA6MX_-376" style="edgeStyle=orthogonalEdgeStyle;rounded=0;orthogonalLoop=1;jettySize=auto;html=1;exitX=0.5;exitY=1;exitDx=0;exitDy=0;entryX=0.5;entryY=0;entryDx=0;entryDy=0;fontSize=15;" parent="1" source="LmqjV7RejRyaaiGA6MX_-372" target="LmqjV7RejRyaaiGA6MX_-373" edge="1">
                    <mxGeometry relative="1" as="geometry"/>
                </mxCell>
                <mxCell id="LmqjV7RejRyaaiGA6MX_-372" value="" style="rounded=0;whiteSpace=wrap;html=1;fillColor=#f8cecc;strokeColor=#b85450;" parent="1" vertex="1">
                    <mxGeometry x="-230" y="280" width="120" height="10" as="geometry"/>
                </mxCell>
                <mxCell id="LmqjV7RejRyaaiGA6MX_-373" value="id" style="rounded=0;whiteSpace=wrap;html=1;fillColor=#dae8fc;strokeColor=#6c8ebf;" parent="1" vertex="1">
                    <mxGeometry x="-330" y="340" width="120" height="60" as="geometry"/>
                </mxCell>
                <mxCell id="LmqjV7RejRyaaiGA6MX_-374" value="role" style="rounded=0;whiteSpace=wrap;html=1;fillColor=#dae8fc;strokeColor=#6c8ebf;" parent="1" vertex="1">
                    <mxGeometry x="-130" y="340" width="120" height="60" as="geometry"/>
                </mxCell>
                <mxCell id="LmqjV7RejRyaaiGA6MX_-382" style="edgeStyle=orthogonalEdgeStyle;rounded=0;orthogonalLoop=1;jettySize=auto;html=1;exitX=0.5;exitY=0;exitDx=0;exitDy=0;entryX=0.5;entryY=1;entryDx=0;entryDy=0;fontSize=15;" parent="1" source="LmqjV7RejRyaaiGA6MX_-377" target="LmqjV7RejRyaaiGA6MX_-370" edge="1">
                    <mxGeometry relative="1" as="geometry"/>
                </mxCell>
                <mxCell id="LmqjV7RejRyaaiGA6MX_-377" value="admins, mods, associates (members/employees), etc." style="text;html=1;strokeColor=none;fillColor=none;align=center;verticalAlign=middle;whiteSpace=wrap;rounded=0;fontSize=15;" parent="1" vertex="1">
                    <mxGeometry x="-300" y="410" width="260" height="57.5" as="geometry"/>
                </mxCell>
                <mxCell id="TbryJDqNeCRR6sssfTwQ-7" style="edgeStyle=orthogonalEdgeStyle;rounded=0;orthogonalLoop=1;jettySize=auto;html=1;exitX=0.5;exitY=1;exitDx=0;exitDy=0;entryX=0.5;entryY=0;entryDx=0;entryDy=0;" parent="1" source="LmqjV7RejRyaaiGA6MX_-383" target="TbryJDqNeCRR6sssfTwQ-2" edge="1">
                    <mxGeometry relative="1" as="geometry"/>
                </mxCell>
                <mxCell id="TbryJDqNeCRR6sssfTwQ-8" style="edgeStyle=orthogonalEdgeStyle;rounded=0;orthogonalLoop=1;jettySize=auto;html=1;exitX=0.5;exitY=1;exitDx=0;exitDy=0;entryX=0.5;entryY=0;entryDx=0;entryDy=0;" parent="1" source="LmqjV7RejRyaaiGA6MX_-383" target="TbryJDqNeCRR6sssfTwQ-1" edge="1">
                    <mxGeometry relative="1" as="geometry"/>
                </mxCell>
                <mxCell id="LmqjV7RejRyaaiGA6MX_-383" value="general" style="rounded=0;whiteSpace=wrap;html=1;fillColor=#f8cecc;strokeColor=#b85450;" parent="1" vertex="1">
                    <mxGeometry x="80" y="1420" width="120" height="60" as="geometry"/>
                </mxCell>
                <mxCell id="TbryJDqNeCRR6sssfTwQ-9" style="edgeStyle=orthogonalEdgeStyle;rounded=0;orthogonalLoop=1;jettySize=auto;html=1;exitX=0.5;exitY=1;exitDx=0;exitDy=0;entryX=0.5;entryY=0;entryDx=0;entryDy=0;" parent="1" source="LmqjV7RejRyaaiGA6MX_-384" target="TbryJDqNeCRR6sssfTwQ-3" edge="1">
                    <mxGeometry relative="1" as="geometry"/>
                </mxCell>
                <mxCell id="LmqjV7RejRyaaiGA6MX_-384" value="page" style="rounded=0;whiteSpace=wrap;html=1;fillColor=#f8cecc;strokeColor=#b85450;" parent="1" vertex="1">
                    <mxGeometry x="425" y="1420" width="120" height="60" as="geometry"/>
                </mxCell>
                <mxCell id="TbryJDqNeCRR6sssfTwQ-10" style="edgeStyle=orthogonalEdgeStyle;rounded=0;orthogonalLoop=1;jettySize=auto;html=1;exitX=0.5;exitY=1;exitDx=0;exitDy=0;" parent="1" source="LmqjV7RejRyaaiGA6MX_-385" target="TbryJDqNeCRR6sssfTwQ-6" edge="1">
                    <mxGeometry relative="1" as="geometry"/>
                </mxCell>
                <mxCell id="TbryJDqNeCRR6sssfTwQ-11" style="edgeStyle=orthogonalEdgeStyle;rounded=0;orthogonalLoop=1;jettySize=auto;html=1;exitX=0.5;exitY=1;exitDx=0;exitDy=0;entryX=0.5;entryY=0;entryDx=0;entryDy=0;" parent="1" source="LmqjV7RejRyaaiGA6MX_-385" target="TbryJDqNeCRR6sssfTwQ-5" edge="1">
                    <mxGeometry relative="1" as="geometry"/>
                </mxCell>
                <mxCell id="LmqjV7RejRyaaiGA6MX_-385" value="space" style="rounded=0;whiteSpace=wrap;html=1;fillColor=#f8cecc;strokeColor=#b85450;" parent="1" vertex="1">
                    <mxGeometry x="725" y="1420" width="120" height="60" as="geometry"/>
                </mxCell>
                <mxCell id="LmqjV7RejRyaaiGA6MX_-408" value="chatHistory" style="rounded=0;whiteSpace=wrap;html=1;fillColor=#fff2cc;strokeColor=#d6b656;" parent="1" vertex="1">
                    <mxGeometry x="-470" y="1431.5" width="120" height="60" as="geometry"/>
                </mxCell>
                <mxCell id="LmqjV7RejRyaaiGA6MX_-409" style="edgeStyle=orthogonalEdgeStyle;rounded=0;orthogonalLoop=1;jettySize=auto;html=1;exitX=0.5;exitY=1;exitDx=0;exitDy=0;" parent="1" source="LmqjV7RejRyaaiGA6MX_-412" target="LmqjV7RejRyaaiGA6MX_-414" edge="1">
                    <mxGeometry relative="1" as="geometry"/>
                </mxCell>
                <mxCell id="LmqjV7RejRyaaiGA6MX_-410" style="edgeStyle=orthogonalEdgeStyle;rounded=0;orthogonalLoop=1;jettySize=auto;html=1;exitX=0.5;exitY=1;exitDx=0;exitDy=0;" parent="1" source="LmqjV7RejRyaaiGA6MX_-412" target="LmqjV7RejRyaaiGA6MX_-417" edge="1">
                    <mxGeometry relative="1" as="geometry"/>
                </mxCell>
                <mxCell id="LmqjV7RejRyaaiGA6MX_-411" style="edgeStyle=orthogonalEdgeStyle;rounded=0;orthogonalLoop=1;jettySize=auto;html=1;exitX=0.5;exitY=1;exitDx=0;exitDy=0;" parent="1" source="LmqjV7RejRyaaiGA6MX_-412" target="LmqjV7RejRyaaiGA6MX_-413" edge="1">
                    <mxGeometry relative="1" as="geometry"/>
                </mxCell>
                <mxCell id="LmqjV7RejRyaaiGA6MX_-412" value="" style="rounded=0;whiteSpace=wrap;html=1;fillColor=#f8cecc;strokeColor=#b85450;" parent="1" vertex="1">
                    <mxGeometry x="-470" y="1491.5" width="120" height="10" as="geometry"/>
                </mxCell>
                <mxCell id="LmqjV7RejRyaaiGA6MX_-413" value="timeStamp" style="rounded=0;whiteSpace=wrap;html=1;fillColor=#dae8fc;strokeColor=#6c8ebf;" parent="1" vertex="1">
                    <mxGeometry x="-610" y="1570" width="120" height="60" as="geometry"/>
                </mxCell>
                <mxCell id="LmqjV7RejRyaaiGA6MX_-414" value="sender" style="rounded=0;whiteSpace=wrap;html=1;fillColor=#dae8fc;strokeColor=#6c8ebf;" parent="1" vertex="1">
                    <mxGeometry x="-470" y="1570" width="120" height="60" as="geometry"/>
                </mxCell>
                <mxCell id="LmqjV7RejRyaaiGA6MX_-417" value="items" style="rounded=0;whiteSpace=wrap;html=1;fillColor=#fff2cc;strokeColor=#d6b656;" parent="1" vertex="1">
                    <mxGeometry x="-330" y="1570" width="120" height="60" as="geometry"/>
                </mxCell>
                <mxCell id="LmqjV7RejRyaaiGA6MX_-418" value="line of Text/Image" style="rounded=0;whiteSpace=wrap;html=1;fillColor=#dae8fc;strokeColor=#6c8ebf;" parent="1" vertex="1">
                    <mxGeometry x="-330" y="1630" width="120" height="20" as="geometry"/>
                </mxCell>
                <mxCell id="LmqjV7RejRyaaiGA6MX_-421" style="edgeStyle=orthogonalEdgeStyle;rounded=0;orthogonalLoop=1;jettySize=auto;html=1;exitX=0.5;exitY=1;exitDx=0;exitDy=0;entryX=0.5;entryY=0;entryDx=0;entryDy=0;fontSize=15;" parent="1" source="LmqjV7RejRyaaiGA6MX_-419" target="LmqjV7RejRyaaiGA6MX_-408" edge="1">
                    <mxGeometry relative="1" as="geometry"/>
                </mxCell>
                <mxCell id="LmqjV7RejRyaaiGA6MX_-429" style="edgeStyle=orthogonalEdgeStyle;rounded=0;orthogonalLoop=1;jettySize=auto;html=1;exitX=0.5;exitY=1;exitDx=0;exitDy=0;entryX=0.5;entryY=0;entryDx=0;entryDy=0;fontSize=15;" parent="1" source="LmqjV7RejRyaaiGA6MX_-419" target="LmqjV7RejRyaaiGA6MX_-423" edge="1">
                    <mxGeometry relative="1" as="geometry"/>
                </mxCell>
                <mxCell id="LmqjV7RejRyaaiGA6MX_-434" style="edgeStyle=orthogonalEdgeStyle;rounded=0;orthogonalLoop=1;jettySize=auto;html=1;exitX=0.5;exitY=1;exitDx=0;exitDy=0;entryX=0.5;entryY=0;entryDx=0;entryDy=0;fontSize=15;" parent="1" source="LmqjV7RejRyaaiGA6MX_-419" target="LmqjV7RejRyaaiGA6MX_-430" edge="1">
                    <mxGeometry relative="1" as="geometry"/>
                </mxCell>
                <mxCell id="LmqjV7RejRyaaiGA6MX_-419" value="Conversation" style="rounded=0;whiteSpace=wrap;html=1;fillColor=#f8cecc;strokeColor=#b85450;" parent="1" vertex="1">
                    <mxGeometry x="-690" y="1250" width="120" height="60" as="geometry"/>
                </mxCell>
                <mxCell id="LmqjV7RejRyaaiGA6MX_-423" value="name" style="rounded=0;whiteSpace=wrap;html=1;fillColor=#dae8fc;strokeColor=#6c8ebf;" parent="1" vertex="1">
                    <mxGeometry x="-1050" y="1430" width="120" height="60" as="geometry"/>
                </mxCell>
                <mxCell id="LmqjV7RejRyaaiGA6MX_-430" value="members" style="rounded=0;whiteSpace=wrap;html=1;fillColor=#fff2cc;strokeColor=#d6b656;" parent="1" vertex="1">
                    <mxGeometry x="-850" y="1431.5" width="120" height="60" as="geometry"/>
                </mxCell>
                <mxCell id="LmqjV7RejRyaaiGA6MX_-435" style="edgeStyle=orthogonalEdgeStyle;rounded=0;orthogonalLoop=1;jettySize=auto;html=1;exitX=0.5;exitY=1;exitDx=0;exitDy=0;entryX=0.5;entryY=0;entryDx=0;entryDy=0;fontSize=15;" parent="1" source="LmqjV7RejRyaaiGA6MX_-431" target="LmqjV7RejRyaaiGA6MX_-433" edge="1">
                    <mxGeometry relative="1" as="geometry"/>
                </mxCell>
                <mxCell id="LmqjV7RejRyaaiGA6MX_-436" style="edgeStyle=orthogonalEdgeStyle;rounded=0;orthogonalLoop=1;jettySize=auto;html=1;exitX=0.5;exitY=1;exitDx=0;exitDy=0;fontSize=15;" parent="1" source="LmqjV7RejRyaaiGA6MX_-431" target="LmqjV7RejRyaaiGA6MX_-432" edge="1">
                    <mxGeometry relative="1" as="geometry"/>
                </mxCell>
                <mxCell id="LmqjV7RejRyaaiGA6MX_-431" value="" style="rounded=0;whiteSpace=wrap;html=1;fillColor=#f8cecc;strokeColor=#b85450;" parent="1" vertex="1">
                    <mxGeometry x="-850" y="1491.5" width="120" height="10" as="geometry"/>
                </mxCell>
                <mxCell id="LmqjV7RejRyaaiGA6MX_-432" value="id" style="rounded=0;whiteSpace=wrap;html=1;fillColor=#dae8fc;strokeColor=#6c8ebf;" parent="1" vertex="1">
                    <mxGeometry x="-930" y="1570" width="120" height="60" as="geometry"/>
                </mxCell>
                <mxCell id="LmqjV7RejRyaaiGA6MX_-433" value="role" style="rounded=0;whiteSpace=wrap;html=1;fillColor=#dae8fc;strokeColor=#6c8ebf;" parent="1" vertex="1">
                    <mxGeometry x="-770" y="1570" width="120" height="60" as="geometry"/>
                </mxCell>
                <mxCell id="LmqjV7RejRyaaiGA6MX_-437" value="space" style="rounded=0;whiteSpace=wrap;html=1;fillColor=#dae8fc;strokeColor=#6c8ebf;" parent="1" vertex="1">
                    <mxGeometry x="2562.5" y="1020" width="120" height="60" as="geometry"/>
                </mxCell>
                <mxCell id="LmqjV7RejRyaaiGA6MX_-440" value="avatar" style="rounded=0;whiteSpace=wrap;html=1;fillColor=#dae8fc;strokeColor=#6c8ebf;" parent="1" vertex="1">
                    <mxGeometry x="1340" y="1490" width="120" height="60" as="geometry"/>
                </mxCell>
                <mxCell id="TbryJDqNeCRR6sssfTwQ-1" value="normal" style="rounded=0;whiteSpace=wrap;html=1;fillColor=#fff2cc;strokeColor=#d6b656;" parent="1" vertex="1">
                    <mxGeometry y="1540" width="120" height="60" as="geometry"/>
                </mxCell>
                <mxCell id="TbryJDqNeCRR6sssfTwQ-2" value="dictators" style="rounded=0;whiteSpace=wrap;html=1;fillColor=#fff2cc;strokeColor=#d6b656;" parent="1" vertex="1">
                    <mxGeometry x="160" y="1540" width="120" height="60" as="geometry"/>
                </mxCell>
                <mxCell id="TbryJDqNeCRR6sssfTwQ-3" value="admin" style="rounded=0;whiteSpace=wrap;html=1;fillColor=#fff2cc;strokeColor=#d6b656;" parent="1" vertex="1">
                    <mxGeometry x="425" y="1540" width="120" height="60" as="geometry"/>
                </mxCell>
                <mxCell id="TbryJDqNeCRR6sssfTwQ-5" value="admin" style="rounded=0;whiteSpace=wrap;html=1;fillColor=#fff2cc;strokeColor=#d6b656;" parent="1" vertex="1">
                    <mxGeometry x="620" y="1540" width="120" height="60" as="geometry"/>
                </mxCell>
                <mxCell id="TbryJDqNeCRR6sssfTwQ-6" value="members" style="rounded=0;whiteSpace=wrap;html=1;fillColor=#fff2cc;strokeColor=#d6b656;" parent="1" vertex="1">
                    <mxGeometry x="830" y="1540" width="120" height="60" as="geometry"/>
                </mxCell>
                <mxCell id="TbryJDqNeCRR6sssfTwQ-12" value="" style="rounded=0;whiteSpace=wrap;html=1;fillColor=#dae8fc;strokeColor=#6c8ebf;" parent="1" vertex="1">
                    <mxGeometry y="1600" width="120" height="10" as="geometry"/>
                </mxCell>
                <mxCell id="TbryJDqNeCRR6sssfTwQ-13" value="" style="rounded=0;whiteSpace=wrap;html=1;fillColor=#dae8fc;strokeColor=#6c8ebf;" parent="1" vertex="1">
                    <mxGeometry x="160" y="1600" width="120" height="10" as="geometry"/>
                </mxCell>
                <mxCell id="TbryJDqNeCRR6sssfTwQ-14" value="" style="rounded=0;whiteSpace=wrap;html=1;fillColor=#dae8fc;strokeColor=#6c8ebf;" parent="1" vertex="1">
                    <mxGeometry x="425" y="1601.5" width="120" height="10" as="geometry"/>
                </mxCell>
                <mxCell id="TbryJDqNeCRR6sssfTwQ-15" value="" style="rounded=0;whiteSpace=wrap;html=1;fillColor=#dae8fc;strokeColor=#6c8ebf;" parent="1" vertex="1">
                    <mxGeometry x="620" y="1601.5" width="120" height="10" as="geometry"/>
                </mxCell>
                <mxCell id="TbryJDqNeCRR6sssfTwQ-16" value="" style="rounded=0;whiteSpace=wrap;html=1;fillColor=#dae8fc;strokeColor=#6c8ebf;" parent="1" vertex="1">
                    <mxGeometry x="830" y="1601.5" width="120" height="10" as="geometry"/>
                </mxCell>
                <mxCell id="TbryJDqNeCRR6sssfTwQ-18" style="edgeStyle=orthogonalEdgeStyle;rounded=0;orthogonalLoop=1;jettySize=auto;html=1;exitX=0.5;exitY=1;exitDx=0;exitDy=0;" parent="1" source="TbryJDqNeCRR6sssfTwQ-17" target="LmqjV7RejRyaaiGA6MX_-265" edge="1">
                    <mxGeometry relative="1" as="geometry"/>
                </mxCell>
                <mxCell id="TbryJDqNeCRR6sssfTwQ-19" style="edgeStyle=orthogonalEdgeStyle;rounded=0;orthogonalLoop=1;jettySize=auto;html=1;exitX=0.5;exitY=1;exitDx=0;exitDy=0;" parent="1" source="TbryJDqNeCRR6sssfTwQ-17" target="LmqjV7RejRyaaiGA6MX_-268" edge="1">
                    <mxGeometry relative="1" as="geometry"/>
                </mxCell>
                <mxCell id="TbryJDqNeCRR6sssfTwQ-20" style="edgeStyle=orthogonalEdgeStyle;rounded=0;orthogonalLoop=1;jettySize=auto;html=1;exitX=0.5;exitY=1;exitDx=0;exitDy=0;entryX=0.5;entryY=0;entryDx=0;entryDy=0;" parent="1" source="TbryJDqNeCRR6sssfTwQ-17" target="LmqjV7RejRyaaiGA6MX_-264" edge="1">
                    <mxGeometry relative="1" as="geometry"/>
                </mxCell>
                <mxCell id="TbryJDqNeCRR6sssfTwQ-21" style="edgeStyle=orthogonalEdgeStyle;rounded=0;orthogonalLoop=1;jettySize=auto;html=1;exitX=0.5;exitY=1;exitDx=0;exitDy=0;entryX=0.5;entryY=0;entryDx=0;entryDy=0;" parent="1" source="TbryJDqNeCRR6sssfTwQ-17" target="LmqjV7RejRyaaiGA6MX_-267" edge="1">
                    <mxGeometry relative="1" as="geometry"/>
                </mxCell>
                <mxCell id="TbryJDqNeCRR6sssfTwQ-22" style="edgeStyle=orthogonalEdgeStyle;rounded=0;orthogonalLoop=1;jettySize=auto;html=1;exitX=0.5;exitY=1;exitDx=0;exitDy=0;" parent="1" source="TbryJDqNeCRR6sssfTwQ-17" target="LmqjV7RejRyaaiGA6MX_-261" edge="1">
                    <mxGeometry relative="1" as="geometry"/>
                </mxCell>
                <mxCell id="TbryJDqNeCRR6sssfTwQ-17" value="ReportedUser" style="rounded=0;whiteSpace=wrap;html=1;fillColor=#f8cecc;strokeColor=#b85450;" parent="1" vertex="1">
                    <mxGeometry x="2740" y="1350" width="120" height="60" as="geometry"/>
                </mxCell>
                <mxCell id="TbryJDqNeCRR6sssfTwQ-23" value="id" style="rounded=0;whiteSpace=wrap;html=1;fillColor=#dae8fc;strokeColor=#6c8ebf;" parent="1" vertex="1">
                    <mxGeometry x="3310" y="1491.5" width="120" height="60" as="geometry"/>
                </mxCell>
                <mxCell id="TbryJDqNeCRR6sssfTwQ-24" value="reporterID" style="rounded=0;whiteSpace=wrap;html=1;fillColor=#dae8fc;strokeColor=#6c8ebf;" parent="1" vertex="1">
                    <mxGeometry x="3480" y="1491.5" width="120" height="60" as="geometry"/>
                </mxCell>
                <mxCell id="TbryJDqNeCRR6sssfTwQ-25" value="timeOfReport" style="rounded=0;whiteSpace=wrap;html=1;fillColor=#dae8fc;strokeColor=#6c8ebf;" parent="1" vertex="1">
                    <mxGeometry x="3650" y="1491.5" width="120" height="60" as="geometry"/>
                </mxCell>
                <mxCell id="TbryJDqNeCRR6sssfTwQ-26" value="content" style="rounded=0;whiteSpace=wrap;html=1;fillColor=#dae8fc;strokeColor=#6c8ebf;" parent="1" vertex="1">
                    <mxGeometry x="3990" y="1491.5" width="120" height="60" as="geometry"/>
                </mxCell>
                <mxCell id="TbryJDqNeCRR6sssfTwQ-27" value="category" style="rounded=0;whiteSpace=wrap;html=1;fillColor=#dae8fc;strokeColor=#6c8ebf;" parent="1" vertex="1">
                    <mxGeometry x="3820" y="1491.5" width="120" height="60" as="geometry"/>
                </mxCell>
                <mxCell id="TbryJDqNeCRR6sssfTwQ-28" style="edgeStyle=orthogonalEdgeStyle;rounded=0;orthogonalLoop=1;jettySize=auto;html=1;exitX=0.5;exitY=1;exitDx=0;exitDy=0;" parent="1" source="TbryJDqNeCRR6sssfTwQ-33" target="TbryJDqNeCRR6sssfTwQ-25" edge="1">
                    <mxGeometry relative="1" as="geometry"/>
                </mxCell>
                <mxCell id="TbryJDqNeCRR6sssfTwQ-29" style="edgeStyle=orthogonalEdgeStyle;rounded=0;orthogonalLoop=1;jettySize=auto;html=1;exitX=0.5;exitY=1;exitDx=0;exitDy=0;" parent="1" source="TbryJDqNeCRR6sssfTwQ-33" target="TbryJDqNeCRR6sssfTwQ-27" edge="1">
                    <mxGeometry relative="1" as="geometry"/>
                </mxCell>
                <mxCell id="TbryJDqNeCRR6sssfTwQ-30" style="edgeStyle=orthogonalEdgeStyle;rounded=0;orthogonalLoop=1;jettySize=auto;html=1;exitX=0.5;exitY=1;exitDx=0;exitDy=0;entryX=0.5;entryY=0;entryDx=0;entryDy=0;" parent="1" source="TbryJDqNeCRR6sssfTwQ-33" target="TbryJDqNeCRR6sssfTwQ-24" edge="1">
                    <mxGeometry relative="1" as="geometry"/>
                </mxCell>
                <mxCell id="TbryJDqNeCRR6sssfTwQ-31" style="edgeStyle=orthogonalEdgeStyle;rounded=0;orthogonalLoop=1;jettySize=auto;html=1;exitX=0.5;exitY=1;exitDx=0;exitDy=0;entryX=0.5;entryY=0;entryDx=0;entryDy=0;" parent="1" source="TbryJDqNeCRR6sssfTwQ-33" target="TbryJDqNeCRR6sssfTwQ-26" edge="1">
                    <mxGeometry relative="1" as="geometry"/>
                </mxCell>
                <mxCell id="TbryJDqNeCRR6sssfTwQ-32" style="edgeStyle=orthogonalEdgeStyle;rounded=0;orthogonalLoop=1;jettySize=auto;html=1;exitX=0.5;exitY=1;exitDx=0;exitDy=0;" parent="1" source="TbryJDqNeCRR6sssfTwQ-33" target="TbryJDqNeCRR6sssfTwQ-23" edge="1">
                    <mxGeometry relative="1" as="geometry"/>
                </mxCell>
                <mxCell id="TbryJDqNeCRR6sssfTwQ-33" value="ReportedPage" style="rounded=0;whiteSpace=wrap;html=1;fillColor=#f8cecc;strokeColor=#b85450;" parent="1" vertex="1">
                    <mxGeometry x="3650" y="1351.5" width="120" height="60" as="geometry"/>
                </mxCell>
                <mxCell id="TbryJDqNeCRR6sssfTwQ-34" value="id" style="rounded=0;whiteSpace=wrap;html=1;fillColor=#dae8fc;strokeColor=#6c8ebf;" parent="1" vertex="1">
                    <mxGeometry x="4210" y="1490" width="120" height="60" as="geometry"/>
                </mxCell>
                <mxCell id="TbryJDqNeCRR6sssfTwQ-35" value="reporterID" style="rounded=0;whiteSpace=wrap;html=1;fillColor=#dae8fc;strokeColor=#6c8ebf;" parent="1" vertex="1">
                    <mxGeometry x="4380" y="1490" width="120" height="60" as="geometry"/>
                </mxCell>
                <mxCell id="TbryJDqNeCRR6sssfTwQ-36" value="timeOfReport" style="rounded=0;whiteSpace=wrap;html=1;fillColor=#dae8fc;strokeColor=#6c8ebf;" parent="1" vertex="1">
                    <mxGeometry x="4550" y="1490" width="120" height="60" as="geometry"/>
                </mxCell>
                <mxCell id="TbryJDqNeCRR6sssfTwQ-37" value="content" style="rounded=0;whiteSpace=wrap;html=1;fillColor=#dae8fc;strokeColor=#6c8ebf;" parent="1" vertex="1">
                    <mxGeometry x="4890" y="1490" width="120" height="60" as="geometry"/>
                </mxCell>
                <mxCell id="TbryJDqNeCRR6sssfTwQ-38" value="category" style="rounded=0;whiteSpace=wrap;html=1;fillColor=#dae8fc;strokeColor=#6c8ebf;" parent="1" vertex="1">
                    <mxGeometry x="4720" y="1490" width="120" height="60" as="geometry"/>
                </mxCell>
                <mxCell id="TbryJDqNeCRR6sssfTwQ-39" style="edgeStyle=orthogonalEdgeStyle;rounded=0;orthogonalLoop=1;jettySize=auto;html=1;exitX=0.5;exitY=1;exitDx=0;exitDy=0;" parent="1" source="TbryJDqNeCRR6sssfTwQ-44" target="TbryJDqNeCRR6sssfTwQ-36" edge="1">
                    <mxGeometry relative="1" as="geometry"/>
                </mxCell>
                <mxCell id="TbryJDqNeCRR6sssfTwQ-40" style="edgeStyle=orthogonalEdgeStyle;rounded=0;orthogonalLoop=1;jettySize=auto;html=1;exitX=0.5;exitY=1;exitDx=0;exitDy=0;" parent="1" source="TbryJDqNeCRR6sssfTwQ-44" target="TbryJDqNeCRR6sssfTwQ-38" edge="1">
                    <mxGeometry relative="1" as="geometry"/>
                </mxCell>
                <mxCell id="TbryJDqNeCRR6sssfTwQ-41" style="edgeStyle=orthogonalEdgeStyle;rounded=0;orthogonalLoop=1;jettySize=auto;html=1;exitX=0.5;exitY=1;exitDx=0;exitDy=0;entryX=0.5;entryY=0;entryDx=0;entryDy=0;" parent="1" source="TbryJDqNeCRR6sssfTwQ-44" target="TbryJDqNeCRR6sssfTwQ-35" edge="1">
                    <mxGeometry relative="1" as="geometry"/>
                </mxCell>
                <mxCell id="TbryJDqNeCRR6sssfTwQ-42" style="edgeStyle=orthogonalEdgeStyle;rounded=0;orthogonalLoop=1;jettySize=auto;html=1;exitX=0.5;exitY=1;exitDx=0;exitDy=0;entryX=0.5;entryY=0;entryDx=0;entryDy=0;" parent="1" source="TbryJDqNeCRR6sssfTwQ-44" target="TbryJDqNeCRR6sssfTwQ-37" edge="1">
                    <mxGeometry relative="1" as="geometry"/>
                </mxCell>
                <mxCell id="TbryJDqNeCRR6sssfTwQ-43" style="edgeStyle=orthogonalEdgeStyle;rounded=0;orthogonalLoop=1;jettySize=auto;html=1;exitX=0.5;exitY=1;exitDx=0;exitDy=0;" parent="1" source="TbryJDqNeCRR6sssfTwQ-44" target="TbryJDqNeCRR6sssfTwQ-34" edge="1">
                    <mxGeometry relative="1" as="geometry"/>
                </mxCell>
                <mxCell id="TbryJDqNeCRR6sssfTwQ-44" value="ReportedSpace" style="rounded=0;whiteSpace=wrap;html=1;fillColor=#f8cecc;strokeColor=#b85450;" parent="1" vertex="1">
                    <mxGeometry x="4550" y="1350" width="120" height="60" as="geometry"/>
                </mxCell>
                <mxCell id="TbryJDqNeCRR6sssfTwQ-45" value="id" style="rounded=0;whiteSpace=wrap;html=1;fillColor=#dae8fc;strokeColor=#6c8ebf;" parent="1" vertex="1">
                    <mxGeometry x="5120" y="1491.5" width="120" height="60" as="geometry"/>
                </mxCell>
                <mxCell id="TbryJDqNeCRR6sssfTwQ-46" value="reporterID" style="rounded=0;whiteSpace=wrap;html=1;fillColor=#dae8fc;strokeColor=#6c8ebf;" parent="1" vertex="1">
                    <mxGeometry x="5290" y="1491.5" width="120" height="60" as="geometry"/>
                </mxCell>
                <mxCell id="TbryJDqNeCRR6sssfTwQ-47" value="timeOfReport" style="rounded=0;whiteSpace=wrap;html=1;fillColor=#dae8fc;strokeColor=#6c8ebf;" parent="1" vertex="1">
                    <mxGeometry x="5460" y="1491.5" width="120" height="60" as="geometry"/>
                </mxCell>
                <mxCell id="TbryJDqNeCRR6sssfTwQ-48" value="content" style="rounded=0;whiteSpace=wrap;html=1;fillColor=#dae8fc;strokeColor=#6c8ebf;" parent="1" vertex="1">
                    <mxGeometry x="5800" y="1491.5" width="120" height="60" as="geometry"/>
                </mxCell>
                <mxCell id="TbryJDqNeCRR6sssfTwQ-49" value="category" style="rounded=0;whiteSpace=wrap;html=1;fillColor=#dae8fc;strokeColor=#6c8ebf;" parent="1" vertex="1">
                    <mxGeometry x="5630" y="1491.5" width="120" height="60" as="geometry"/>
                </mxCell>
                <mxCell id="TbryJDqNeCRR6sssfTwQ-50" style="edgeStyle=orthogonalEdgeStyle;rounded=0;orthogonalLoop=1;jettySize=auto;html=1;exitX=0.5;exitY=1;exitDx=0;exitDy=0;" parent="1" source="TbryJDqNeCRR6sssfTwQ-55" target="TbryJDqNeCRR6sssfTwQ-47" edge="1">
                    <mxGeometry relative="1" as="geometry"/>
                </mxCell>
                <mxCell id="TbryJDqNeCRR6sssfTwQ-51" style="edgeStyle=orthogonalEdgeStyle;rounded=0;orthogonalLoop=1;jettySize=auto;html=1;exitX=0.5;exitY=1;exitDx=0;exitDy=0;" parent="1" source="TbryJDqNeCRR6sssfTwQ-55" target="TbryJDqNeCRR6sssfTwQ-49" edge="1">
                    <mxGeometry relative="1" as="geometry"/>
                </mxCell>
                <mxCell id="TbryJDqNeCRR6sssfTwQ-52" style="edgeStyle=orthogonalEdgeStyle;rounded=0;orthogonalLoop=1;jettySize=auto;html=1;exitX=0.5;exitY=1;exitDx=0;exitDy=0;entryX=0.5;entryY=0;entryDx=0;entryDy=0;" parent="1" source="TbryJDqNeCRR6sssfTwQ-55" target="TbryJDqNeCRR6sssfTwQ-46" edge="1">
                    <mxGeometry relative="1" as="geometry"/>
                </mxCell>
                <mxCell id="TbryJDqNeCRR6sssfTwQ-53" style="edgeStyle=orthogonalEdgeStyle;rounded=0;orthogonalLoop=1;jettySize=auto;html=1;exitX=0.5;exitY=1;exitDx=0;exitDy=0;entryX=0.5;entryY=0;entryDx=0;entryDy=0;" parent="1" source="TbryJDqNeCRR6sssfTwQ-55" target="TbryJDqNeCRR6sssfTwQ-48" edge="1">
                    <mxGeometry relative="1" as="geometry"/>
                </mxCell>
                <mxCell id="TbryJDqNeCRR6sssfTwQ-54" style="edgeStyle=orthogonalEdgeStyle;rounded=0;orthogonalLoop=1;jettySize=auto;html=1;exitX=0.5;exitY=1;exitDx=0;exitDy=0;" parent="1" source="TbryJDqNeCRR6sssfTwQ-55" target="TbryJDqNeCRR6sssfTwQ-45" edge="1">
                    <mxGeometry relative="1" as="geometry"/>
                </mxCell>
                <mxCell id="TbryJDqNeCRR6sssfTwQ-55" value="ReportedOffer" style="rounded=0;whiteSpace=wrap;html=1;fillColor=#f8cecc;strokeColor=#b85450;" parent="1" vertex="1">
                    <mxGeometry x="5460" y="1351.5" width="120" height="60" as="geometry"/>
                </mxCell>
                <mxCell id="TbryJDqNeCRR6sssfTwQ-56" value="id" style="rounded=0;whiteSpace=wrap;html=1;fillColor=#dae8fc;strokeColor=#6c8ebf;" parent="1" vertex="1">
                    <mxGeometry x="6040" y="1491.5" width="120" height="60" as="geometry"/>
                </mxCell>
                <mxCell id="TbryJDqNeCRR6sssfTwQ-57" value="reporterID" style="rounded=0;whiteSpace=wrap;html=1;fillColor=#dae8fc;strokeColor=#6c8ebf;" parent="1" vertex="1">
                    <mxGeometry x="6210" y="1491.5" width="120" height="60" as="geometry"/>
                </mxCell>
                <mxCell id="TbryJDqNeCRR6sssfTwQ-58" value="timeOfReport" style="rounded=0;whiteSpace=wrap;html=1;fillColor=#dae8fc;strokeColor=#6c8ebf;" parent="1" vertex="1">
                    <mxGeometry x="6380" y="1491.5" width="120" height="60" as="geometry"/>
                </mxCell>
                <mxCell id="TbryJDqNeCRR6sssfTwQ-59" value="content" style="rounded=0;whiteSpace=wrap;html=1;fillColor=#dae8fc;strokeColor=#6c8ebf;" parent="1" vertex="1">
                    <mxGeometry x="6720" y="1491.5" width="120" height="60" as="geometry"/>
                </mxCell>
                <mxCell id="TbryJDqNeCRR6sssfTwQ-60" value="category" style="rounded=0;whiteSpace=wrap;html=1;fillColor=#dae8fc;strokeColor=#6c8ebf;" parent="1" vertex="1">
                    <mxGeometry x="6550" y="1491.5" width="120" height="60" as="geometry"/>
                </mxCell>
                <mxCell id="TbryJDqNeCRR6sssfTwQ-61" style="edgeStyle=orthogonalEdgeStyle;rounded=0;orthogonalLoop=1;jettySize=auto;html=1;exitX=0.5;exitY=1;exitDx=0;exitDy=0;" parent="1" source="TbryJDqNeCRR6sssfTwQ-66" target="TbryJDqNeCRR6sssfTwQ-58" edge="1">
                    <mxGeometry relative="1" as="geometry"/>
                </mxCell>
                <mxCell id="TbryJDqNeCRR6sssfTwQ-62" style="edgeStyle=orthogonalEdgeStyle;rounded=0;orthogonalLoop=1;jettySize=auto;html=1;exitX=0.5;exitY=1;exitDx=0;exitDy=0;" parent="1" source="TbryJDqNeCRR6sssfTwQ-66" target="TbryJDqNeCRR6sssfTwQ-60" edge="1">
                    <mxGeometry relative="1" as="geometry"/>
                </mxCell>
                <mxCell id="TbryJDqNeCRR6sssfTwQ-63" style="edgeStyle=orthogonalEdgeStyle;rounded=0;orthogonalLoop=1;jettySize=auto;html=1;exitX=0.5;exitY=1;exitDx=0;exitDy=0;entryX=0.5;entryY=0;entryDx=0;entryDy=0;" parent="1" source="TbryJDqNeCRR6sssfTwQ-66" target="TbryJDqNeCRR6sssfTwQ-57" edge="1">
                    <mxGeometry relative="1" as="geometry"/>
                </mxCell>
                <mxCell id="TbryJDqNeCRR6sssfTwQ-64" style="edgeStyle=orthogonalEdgeStyle;rounded=0;orthogonalLoop=1;jettySize=auto;html=1;exitX=0.5;exitY=1;exitDx=0;exitDy=0;entryX=0.5;entryY=0;entryDx=0;entryDy=0;" parent="1" source="TbryJDqNeCRR6sssfTwQ-66" target="TbryJDqNeCRR6sssfTwQ-59" edge="1">
                    <mxGeometry relative="1" as="geometry"/>
                </mxCell>
                <mxCell id="TbryJDqNeCRR6sssfTwQ-65" style="edgeStyle=orthogonalEdgeStyle;rounded=0;orthogonalLoop=1;jettySize=auto;html=1;exitX=0.5;exitY=1;exitDx=0;exitDy=0;" parent="1" source="TbryJDqNeCRR6sssfTwQ-66" target="TbryJDqNeCRR6sssfTwQ-56" edge="1">
                    <mxGeometry relative="1" as="geometry"/>
                </mxCell>
                <mxCell id="TbryJDqNeCRR6sssfTwQ-66" value="ReportedPost" style="rounded=0;whiteSpace=wrap;html=1;fillColor=#f8cecc;strokeColor=#b85450;" parent="1" vertex="1">
                    <mxGeometry x="6380" y="1351.5" width="120" height="60" as="geometry"/>
                </mxCell>
                <mxCell id="pImSLbBrm58Lx3eSKcX--1" value="skills" style="rounded=0;whiteSpace=wrap;html=1;fillColor=#fff2cc;strokeColor=#d6b656;" parent="1" vertex="1">
                    <mxGeometry x="2080" y="1020" width="120" height="60" as="geometry"/>
                </mxCell>
                <mxCell id="pImSLbBrm58Lx3eSKcX--2" value="" style="rounded=0;whiteSpace=wrap;html=1;fillColor=#dae8fc;strokeColor=#6c8ebf;" parent="1" vertex="1">
                    <mxGeometry x="2080" y="1080" width="120" height="10" as="geometry"/>
                </mxCell>
                <mxCell id="pImSLbBrm58Lx3eSKcX--7" style="edgeStyle=orthogonalEdgeStyle;rounded=0;orthogonalLoop=1;jettySize=auto;html=1;exitX=0.5;exitY=0;exitDx=0;exitDy=0;entryX=0.5;entryY=1;entryDx=0;entryDy=0;" parent="1" source="pImSLbBrm58Lx3eSKcX--6" target="pImSLbBrm58Lx3eSKcX--2" edge="1">
                    <mxGeometry relative="1" as="geometry"/>
                </mxCell>
                <mxCell id="pImSLbBrm58Lx3eSKcX--6" value="premade tags" style="text;html=1;strokeColor=none;fillColor=none;align=center;verticalAlign=middle;whiteSpace=wrap;rounded=0;" parent="1" vertex="1">
                    <mxGeometry x="2090" y="1110" width="100" height="20" as="geometry"/>
                </mxCell>
                <mxCell id="pImSLbBrm58Lx3eSKcX--8" value="website" style="rounded=0;whiteSpace=wrap;html=1;fillColor=#dae8fc;strokeColor=#6c8ebf;" parent="1" vertex="1">
                    <mxGeometry x="1145" y="220" width="120" height="60" as="geometry"/>
                </mxCell>
                <mxCell id="ZyibqGvzmlKrrn6xm7zY-15" style="edgeStyle=orthogonalEdgeStyle;rounded=0;orthogonalLoop=1;jettySize=auto;html=1;exitX=0.5;exitY=1;exitDx=0;exitDy=0;entryX=0.5;entryY=0;entryDx=0;entryDy=0;" parent="1" source="ZyibqGvzmlKrrn6xm7zY-1" target="ZyibqGvzmlKrrn6xm7zY-14" edge="1">
                    <mxGeometry relative="1" as="geometry"/>
                </mxCell>
                <mxCell id="ZyibqGvzmlKrrn6xm7zY-16" style="edgeStyle=orthogonalEdgeStyle;rounded=0;orthogonalLoop=1;jettySize=auto;html=1;exitX=0.5;exitY=1;exitDx=0;exitDy=0;" parent="1" source="ZyibqGvzmlKrrn6xm7zY-1" target="ZyibqGvzmlKrrn6xm7zY-13" edge="1">
                    <mxGeometry relative="1" as="geometry"/>
                </mxCell>
                <mxCell id="ZyibqGvzmlKrrn6xm7zY-17" style="edgeStyle=orthogonalEdgeStyle;rounded=0;orthogonalLoop=1;jettySize=auto;html=1;exitX=0.5;exitY=1;exitDx=0;exitDy=0;" parent="1" source="ZyibqGvzmlKrrn6xm7zY-1" target="ZyibqGvzmlKrrn6xm7zY-12" edge="1">
                    <mxGeometry relative="1" as="geometry"/>
                </mxCell>
                <mxCell id="ZyibqGvzmlKrrn6xm7zY-1" value="" style="rounded=0;whiteSpace=wrap;html=1;fillColor=#f8cecc;strokeColor=#b85450;" parent="1" vertex="1">
                    <mxGeometry x="3930" y="280" width="120" height="10" as="geometry"/>
                </mxCell>
                <mxCell id="ZyibqGvzmlKrrn6xm7zY-2" value="singleEvents" style="rounded=0;whiteSpace=wrap;html=1;fillColor=#fff2cc;strokeColor=#d6b656;" parent="1" vertex="1">
                    <mxGeometry x="3930" y="220" width="120" height="60" as="geometry"/>
                </mxCell>
                <mxCell id="ZyibqGvzmlKrrn6xm7zY-27" style="edgeStyle=orthogonalEdgeStyle;rounded=0;orthogonalLoop=1;jettySize=auto;html=1;exitX=0.5;exitY=1;exitDx=0;exitDy=0;" parent="1" source="ZyibqGvzmlKrrn6xm7zY-10" target="ZyibqGvzmlKrrn6xm7zY-23" edge="1">
                    <mxGeometry relative="1" as="geometry"/>
                </mxCell>
                <mxCell id="ZyibqGvzmlKrrn6xm7zY-28" style="edgeStyle=orthogonalEdgeStyle;rounded=0;orthogonalLoop=1;jettySize=auto;html=1;exitX=0.5;exitY=1;exitDx=0;exitDy=0;entryX=0.5;entryY=0;entryDx=0;entryDy=0;" parent="1" source="ZyibqGvzmlKrrn6xm7zY-10" target="ZyibqGvzmlKrrn6xm7zY-24" edge="1">
                    <mxGeometry relative="1" as="geometry"/>
                </mxCell>
                <mxCell id="ZyibqGvzmlKrrn6xm7zY-29" style="edgeStyle=orthogonalEdgeStyle;rounded=0;orthogonalLoop=1;jettySize=auto;html=1;exitX=0.5;exitY=1;exitDx=0;exitDy=0;" parent="1" source="ZyibqGvzmlKrrn6xm7zY-10" target="ZyibqGvzmlKrrn6xm7zY-22" edge="1">
                    <mxGeometry relative="1" as="geometry"/>
                </mxCell>
                <mxCell id="ZyibqGvzmlKrrn6xm7zY-10" value="" style="rounded=0;whiteSpace=wrap;html=1;fillColor=#f8cecc;strokeColor=#b85450;" parent="1" vertex="1">
                    <mxGeometry x="4465" y="280" width="120" height="10" as="geometry"/>
                </mxCell>
                <mxCell id="ZyibqGvzmlKrrn6xm7zY-11" value="annualEvents" style="rounded=0;whiteSpace=wrap;html=1;fillColor=#fff2cc;strokeColor=#d6b656;" parent="1" vertex="1">
                    <mxGeometry x="4465" y="220" width="120" height="60" as="geometry"/>
                </mxCell>
                <mxCell id="ZyibqGvzmlKrrn6xm7zY-12" value="name" style="rounded=0;whiteSpace=wrap;html=1;fillColor=#dae8fc;strokeColor=#6c8ebf;" parent="1" vertex="1">
                    <mxGeometry x="3770" y="391.5" width="120" height="60" as="geometry"/>
                </mxCell>
                <mxCell id="ZyibqGvzmlKrrn6xm7zY-13" value="about" style="rounded=0;whiteSpace=wrap;html=1;fillColor=#dae8fc;strokeColor=#6c8ebf;" parent="1" vertex="1">
                    <mxGeometry x="3930" y="391.5" width="120" height="60" as="geometry"/>
                </mxCell>
                <mxCell id="ZyibqGvzmlKrrn6xm7zY-20" style="edgeStyle=orthogonalEdgeStyle;rounded=0;orthogonalLoop=1;jettySize=auto;html=1;exitX=0.5;exitY=1;exitDx=0;exitDy=0;" parent="1" source="ZyibqGvzmlKrrn6xm7zY-14" target="ZyibqGvzmlKrrn6xm7zY-19" edge="1">
                    <mxGeometry relative="1" as="geometry"/>
                </mxCell>
                <mxCell id="ZyibqGvzmlKrrn6xm7zY-21" style="edgeStyle=orthogonalEdgeStyle;rounded=0;orthogonalLoop=1;jettySize=auto;html=1;exitX=0.5;exitY=1;exitDx=0;exitDy=0;" parent="1" source="ZyibqGvzmlKrrn6xm7zY-14" target="ZyibqGvzmlKrrn6xm7zY-18" edge="1">
                    <mxGeometry relative="1" as="geometry"/>
                </mxCell>
                <mxCell id="ZyibqGvzmlKrrn6xm7zY-14" value="time" style="rounded=0;whiteSpace=wrap;html=1;fillColor=#f8cecc;strokeColor=#b85450;" parent="1" vertex="1">
                    <mxGeometry x="4090" y="391.5" width="120" height="60" as="geometry"/>
                </mxCell>
                <mxCell id="ZyibqGvzmlKrrn6xm7zY-18" value="start" style="rounded=0;whiteSpace=wrap;html=1;fillColor=#dae8fc;strokeColor=#6c8ebf;" parent="1" vertex="1">
                    <mxGeometry x="4010" y="530" width="120" height="60" as="geometry"/>
                </mxCell>
                <mxCell id="ZyibqGvzmlKrrn6xm7zY-19" value="end" style="rounded=0;whiteSpace=wrap;html=1;fillColor=#dae8fc;strokeColor=#6c8ebf;" parent="1" vertex="1">
                    <mxGeometry x="4170" y="530" width="120" height="60" as="geometry"/>
                </mxCell>
                <mxCell id="ZyibqGvzmlKrrn6xm7zY-22" value="name" style="rounded=0;whiteSpace=wrap;html=1;fillColor=#dae8fc;strokeColor=#6c8ebf;" parent="1" vertex="1">
                    <mxGeometry x="4305" y="390" width="120" height="60" as="geometry"/>
                </mxCell>
                <mxCell id="ZyibqGvzmlKrrn6xm7zY-23" value="about" style="rounded=0;whiteSpace=wrap;html=1;fillColor=#dae8fc;strokeColor=#6c8ebf;" parent="1" vertex="1">
                    <mxGeometry x="4465" y="390" width="120" height="60" as="geometry"/>
                </mxCell>
                <mxCell id="ZyibqGvzmlKrrn6xm7zY-30" style="edgeStyle=orthogonalEdgeStyle;rounded=0;orthogonalLoop=1;jettySize=auto;html=1;exitX=0.5;exitY=1;exitDx=0;exitDy=0;" parent="1" source="ZyibqGvzmlKrrn6xm7zY-24" target="ZyibqGvzmlKrrn6xm7zY-26" edge="1">
                    <mxGeometry relative="1" as="geometry"/>
                </mxCell>
                <mxCell id="ZyibqGvzmlKrrn6xm7zY-31" style="edgeStyle=orthogonalEdgeStyle;rounded=0;orthogonalLoop=1;jettySize=auto;html=1;exitX=0.5;exitY=1;exitDx=0;exitDy=0;" parent="1" source="ZyibqGvzmlKrrn6xm7zY-24" target="ZyibqGvzmlKrrn6xm7zY-25" edge="1">
                    <mxGeometry relative="1" as="geometry"/>
                </mxCell>
                <mxCell id="ZyibqGvzmlKrrn6xm7zY-24" value="time" style="rounded=0;whiteSpace=wrap;html=1;fillColor=#f8cecc;strokeColor=#b85450;" parent="1" vertex="1">
                    <mxGeometry x="4625" y="390" width="120" height="60" as="geometry"/>
                </mxCell>
                <mxCell id="ZyibqGvzmlKrrn6xm7zY-25" value="day" style="rounded=0;whiteSpace=wrap;html=1;fillColor=#dae8fc;strokeColor=#6c8ebf;" parent="1" vertex="1">
                    <mxGeometry x="4550" y="520" width="120" height="60" as="geometry"/>
                </mxCell>
                <mxCell id="ZyibqGvzmlKrrn6xm7zY-26" value="month" style="rounded=0;whiteSpace=wrap;html=1;fillColor=#dae8fc;strokeColor=#6c8ebf;" parent="1" vertex="1">
                    <mxGeometry x="4710" y="520" width="120" height="60" as="geometry"/>
                </mxCell>
                <mxCell id="ZyibqGvzmlKrrn6xm7zY-48" style="edgeStyle=orthogonalEdgeStyle;rounded=0;orthogonalLoop=1;jettySize=auto;html=1;entryX=0.5;entryY=0;entryDx=0;entryDy=0;" parent="1" source="ZyibqGvzmlKrrn6xm7zY-34" target="ZyibqGvzmlKrrn6xm7zY-47" edge="1">
                    <mxGeometry relative="1" as="geometry"/>
                </mxCell>
                <mxCell id="ZyibqGvzmlKrrn6xm7zY-34" value="contacts" style="rounded=0;whiteSpace=wrap;html=1;fillColor=#fff2cc;strokeColor=#d6b656;" parent="1" vertex="1">
                    <mxGeometry x="2440" y="220" width="120" height="60" as="geometry"/>
                </mxCell>
                <mxCell id="ZyibqGvzmlKrrn6xm7zY-43" style="edgeStyle=orthogonalEdgeStyle;rounded=0;orthogonalLoop=1;jettySize=auto;html=1;exitX=0.5;exitY=1;exitDx=0;exitDy=0;" parent="1" source="ZyibqGvzmlKrrn6xm7zY-39" target="ZyibqGvzmlKrrn6xm7zY-41" edge="1">
                    <mxGeometry relative="1" as="geometry"/>
                </mxCell>
                <mxCell id="ZyibqGvzmlKrrn6xm7zY-49" style="edgeStyle=orthogonalEdgeStyle;rounded=0;orthogonalLoop=1;jettySize=auto;html=1;exitX=0.5;exitY=1;exitDx=0;exitDy=0;entryX=0.5;entryY=0;entryDx=0;entryDy=0;" parent="1" source="ZyibqGvzmlKrrn6xm7zY-39" target="ZyibqGvzmlKrrn6xm7zY-46" edge="1">
                    <mxGeometry relative="1" as="geometry"/>
                </mxCell>
                <mxCell id="ZyibqGvzmlKrrn6xm7zY-39" value="" style="rounded=0;whiteSpace=wrap;html=1;fillColor=#f8cecc;strokeColor=#b85450;" parent="1" vertex="1">
                    <mxGeometry x="2440" y="280" width="120" height="10" as="geometry"/>
                </mxCell>
                <mxCell id="ZyibqGvzmlKrrn6xm7zY-41" value="description" style="rounded=0;whiteSpace=wrap;html=1;fillColor=#dae8fc;strokeColor=#6c8ebf;" parent="1" vertex="1">
                    <mxGeometry x="2600" y="340" width="120" height="60" as="geometry"/>
                </mxCell>
                <mxCell id="ZyibqGvzmlKrrn6xm7zY-46" value="phoneNo" style="rounded=0;whiteSpace=wrap;html=1;fillColor=#dae8fc;strokeColor=#6c8ebf;" parent="1" vertex="1">
                    <mxGeometry x="2285" y="340" width="120" height="60" as="geometry"/>
                </mxCell>
                <mxCell id="ZyibqGvzmlKrrn6xm7zY-47" value="email" style="rounded=0;whiteSpace=wrap;html=1;fillColor=#dae8fc;strokeColor=#6c8ebf;" parent="1" vertex="1">
                    <mxGeometry x="2440" y="340" width="120" height="60" as="geometry"/>
                </mxCell>
                <mxCell id="ZyibqGvzmlKrrn6xm7zY-52" style="edgeStyle=orthogonalEdgeStyle;rounded=0;orthogonalLoop=1;jettySize=auto;html=1;exitX=0.5;exitY=0;exitDx=0;exitDy=0;entryX=0.5;entryY=1;entryDx=0;entryDy=0;" parent="1" source="ZyibqGvzmlKrrn6xm7zY-51" target="aSrJNdCyeX4z1PQ2K5e5-175" edge="1">
                    <mxGeometry relative="1" as="geometry"/>
                </mxCell>
                <mxCell id="ZyibqGvzmlKrrn6xm7zY-51" value="club, project/initiative/business/NGO/Other" style="text;html=1;strokeColor=none;fillColor=none;align=center;verticalAlign=middle;whiteSpace=wrap;rounded=0;" parent="1" vertex="1">
                    <mxGeometry x="1550" y="330" width="280" height="70" as="geometry"/>
                </mxCell>
                <mxCell id="1nMw16HngFaY3PvJWO6O-7" value="country" style="rounded=0;whiteSpace=wrap;html=1;fillColor=#dae8fc;strokeColor=#6c8ebf;" parent="1" vertex="1">
                    <mxGeometry x="290" y="1180" width="120" height="60" as="geometry"/>
                </mxCell>
                <mxCell id="1nMw16HngFaY3PvJWO6O-8" value="city" style="rounded=0;whiteSpace=wrap;html=1;fillColor=#dae8fc;strokeColor=#6c8ebf;" parent="1" vertex="1">
                    <mxGeometry x="430" y="1180" width="120" height="60" as="geometry"/>
                </mxCell>
                <mxCell id="1nMw16HngFaY3PvJWO6O-9" value="district" style="rounded=0;whiteSpace=wrap;html=1;fillColor=#dae8fc;strokeColor=#6c8ebf;" parent="1" vertex="1">
                    <mxGeometry x="570" y="1180" width="120" height="60" as="geometry"/>
                </mxCell>
                <mxCell id="1nMw16HngFaY3PvJWO6O-10" value="location" style="rounded=0;whiteSpace=wrap;html=1;fillColor=#dae8fc;strokeColor=#6c8ebf;" parent="1" vertex="1">
                    <mxGeometry x="710" y="1180" width="120" height="60" as="geometry"/>
                </mxCell>
                <mxCell id="1nMw16HngFaY3PvJWO6O-14" style="edgeStyle=orthogonalEdgeStyle;rounded=0;orthogonalLoop=1;jettySize=auto;html=1;exitX=0.5;exitY=1;exitDx=0;exitDy=0;" parent="1" source="1nMw16HngFaY3PvJWO6O-12" target="1nMw16HngFaY3PvJWO6O-8" edge="1">
                    <mxGeometry relative="1" as="geometry"/>
                </mxCell>
                <mxCell id="1nMw16HngFaY3PvJWO6O-15" style="edgeStyle=orthogonalEdgeStyle;rounded=0;orthogonalLoop=1;jettySize=auto;html=1;exitX=0.5;exitY=1;exitDx=0;exitDy=0;entryX=0.5;entryY=0;entryDx=0;entryDy=0;" parent="1" source="1nMw16HngFaY3PvJWO6O-12" target="1nMw16HngFaY3PvJWO6O-9" edge="1">
                    <mxGeometry relative="1" as="geometry"/>
                </mxCell>
                <mxCell id="1nMw16HngFaY3PvJWO6O-16" style="edgeStyle=orthogonalEdgeStyle;rounded=0;orthogonalLoop=1;jettySize=auto;html=1;exitX=0.5;exitY=1;exitDx=0;exitDy=0;entryX=0.5;entryY=0;entryDx=0;entryDy=0;" parent="1" source="1nMw16HngFaY3PvJWO6O-12" target="1nMw16HngFaY3PvJWO6O-10" edge="1">
                    <mxGeometry relative="1" as="geometry"/>
                </mxCell>
                <mxCell id="1nMw16HngFaY3PvJWO6O-17" style="edgeStyle=orthogonalEdgeStyle;rounded=0;orthogonalLoop=1;jettySize=auto;html=1;exitX=0.5;exitY=1;exitDx=0;exitDy=0;" parent="1" source="1nMw16HngFaY3PvJWO6O-12" target="1nMw16HngFaY3PvJWO6O-7" edge="1">
                    <mxGeometry relative="1" as="geometry"/>
                </mxCell>
                <mxCell id="1nMw16HngFaY3PvJWO6O-12" value="address" style="rounded=0;whiteSpace=wrap;html=1;fillColor=#f8cecc;strokeColor=#b85450;" parent="1" vertex="1">
                    <mxGeometry x="500" y="1020" width="120" height="60" as="geometry"/>
                </mxCell>
                <mxCell id="qzxj-ttTBUn77yOQ_jce-1" value="about" style="rounded=0;whiteSpace=wrap;html=1;fillColor=#dae8fc;strokeColor=#6c8ebf;" parent="1" vertex="1">
                    <mxGeometry x="6930" y="-411" width="120" height="60" as="geometry"/>
                </mxCell>
                <mxCell id="qzxj-ttTBUn77yOQ_jce-3" value="licensesAndCertifications" style="rounded=0;whiteSpace=wrap;html=1;fillColor=#fff2cc;strokeColor=#d6b656;" parent="1" vertex="1">
                    <mxGeometry x="3246.25" y="-411.5" width="160" height="60" as="geometry"/>
                </mxCell>
                <mxCell id="qzxj-ttTBUn77yOQ_jce-4" style="edgeStyle=orthogonalEdgeStyle;rounded=0;orthogonalLoop=1;jettySize=auto;html=1;exitX=0.5;exitY=1;exitDx=0;exitDy=0;entryX=0.5;entryY=0;entryDx=0;entryDy=0;" parent="1" source="qzxj-ttTBUn77yOQ_jce-8" target="qzxj-ttTBUn77yOQ_jce-9" edge="1">
                    <mxGeometry relative="1" as="geometry"/>
                </mxCell>
                <mxCell id="qzxj-ttTBUn77yOQ_jce-5" style="edgeStyle=orthogonalEdgeStyle;rounded=0;orthogonalLoop=1;jettySize=auto;html=1;exitX=0.5;exitY=1;exitDx=0;exitDy=0;entryX=0.5;entryY=0;entryDx=0;entryDy=0;" parent="1" source="qzxj-ttTBUn77yOQ_jce-8" target="qzxj-ttTBUn77yOQ_jce-10" edge="1">
                    <mxGeometry relative="1" as="geometry"/>
                </mxCell>
                <mxCell id="qzxj-ttTBUn77yOQ_jce-19" style="edgeStyle=orthogonalEdgeStyle;rounded=0;orthogonalLoop=1;jettySize=auto;html=1;exitX=0.5;exitY=1;exitDx=0;exitDy=0;entryX=0.5;entryY=0;entryDx=0;entryDy=0;" parent="1" source="qzxj-ttTBUn77yOQ_jce-8" target="qzxj-ttTBUn77yOQ_jce-17" edge="1">
                    <mxGeometry relative="1" as="geometry"/>
                </mxCell>
                <mxCell id="qzxj-ttTBUn77yOQ_jce-20" style="edgeStyle=orthogonalEdgeStyle;rounded=0;orthogonalLoop=1;jettySize=auto;html=1;exitX=0.5;exitY=1;exitDx=0;exitDy=0;" parent="1" source="qzxj-ttTBUn77yOQ_jce-8" target="qzxj-ttTBUn77yOQ_jce-18" edge="1">
                    <mxGeometry relative="1" as="geometry"/>
                </mxCell>
                <mxCell id="qzxj-ttTBUn77yOQ_jce-21" style="edgeStyle=orthogonalEdgeStyle;rounded=0;orthogonalLoop=1;jettySize=auto;html=1;exitX=0.5;exitY=1;exitDx=0;exitDy=0;" parent="1" source="qzxj-ttTBUn77yOQ_jce-8" target="qzxj-ttTBUn77yOQ_jce-11" edge="1">
                    <mxGeometry relative="1" as="geometry"/>
                </mxCell>
                <mxCell id="qzxj-ttTBUn77yOQ_jce-25" style="edgeStyle=orthogonalEdgeStyle;rounded=0;orthogonalLoop=1;jettySize=auto;html=1;exitX=0.5;exitY=1;exitDx=0;exitDy=0;" parent="1" source="qzxj-ttTBUn77yOQ_jce-8" target="qzxj-ttTBUn77yOQ_jce-24" edge="1">
                    <mxGeometry relative="1" as="geometry"/>
                </mxCell>
                <mxCell id="qzxj-ttTBUn77yOQ_jce-31" style="edgeStyle=orthogonalEdgeStyle;rounded=0;orthogonalLoop=1;jettySize=auto;html=1;exitX=0.5;exitY=1;exitDx=0;exitDy=0;entryX=0.5;entryY=0;entryDx=0;entryDy=0;" parent="1" source="qzxj-ttTBUn77yOQ_jce-8" target="qzxj-ttTBUn77yOQ_jce-30" edge="1">
                    <mxGeometry relative="1" as="geometry"/>
                </mxCell>
                <mxCell id="qzxj-ttTBUn77yOQ_jce-8" value="" style="rounded=0;whiteSpace=wrap;html=1;fillColor=#f8cecc;strokeColor=#b85450;" parent="1" vertex="1">
                    <mxGeometry x="3246.25" y="-351.5" width="160" height="10" as="geometry"/>
                </mxCell>
                <mxCell id="qzxj-ttTBUn77yOQ_jce-9" value="name" style="rounded=0;whiteSpace=wrap;html=1;fillColor=#dae8fc;strokeColor=#6c8ebf;" parent="1" vertex="1">
                    <mxGeometry x="2975" y="-251.5" width="120" height="60" as="geometry"/>
                </mxCell>
                <mxCell id="qzxj-ttTBUn77yOQ_jce-10" value="publisher" style="rounded=0;whiteSpace=wrap;html=1;fillColor=#dae8fc;strokeColor=#6c8ebf;" parent="1" vertex="1">
                    <mxGeometry x="3120" y="-251.5" width="120" height="60" as="geometry"/>
                </mxCell>
                <mxCell id="qzxj-ttTBUn77yOQ_jce-11" value="issuanceDate" style="rounded=0;whiteSpace=wrap;html=1;fillColor=#dae8fc;strokeColor=#6c8ebf;" parent="1" vertex="1">
                    <mxGeometry x="3266" y="-251.5" width="120" height="60" as="geometry"/>
                </mxCell>
                <mxCell id="qzxj-ttTBUn77yOQ_jce-17" value="expirationDate" style="rounded=0;whiteSpace=wrap;html=1;fillColor=#dae8fc;strokeColor=#6c8ebf;" parent="1" vertex="1">
                    <mxGeometry x="3415" y="-251.5" width="120" height="60" as="geometry"/>
                </mxCell>
                <mxCell id="qzxj-ttTBUn77yOQ_jce-18" value="credentialID" style="rounded=0;whiteSpace=wrap;html=1;fillColor=#dae8fc;strokeColor=#6c8ebf;" parent="1" vertex="1">
                    <mxGeometry x="3565" y="-251.5" width="120" height="60" as="geometry"/>
                </mxCell>
                <mxCell id="qzxj-ttTBUn77yOQ_jce-24" value="ava" style="rounded=0;whiteSpace=wrap;html=1;fillColor=#dae8fc;strokeColor=#6c8ebf;" parent="1" vertex="1">
                    <mxGeometry x="2820" y="-251.5" width="120" height="60" as="geometry"/>
                </mxCell>
                <mxCell id="qzxj-ttTBUn77yOQ_jce-26" value="ava" style="rounded=0;whiteSpace=wrap;html=1;fillColor=#dae8fc;strokeColor=#6c8ebf;" parent="1" vertex="1">
                    <mxGeometry x="1920" y="-256.25" width="120" height="60" as="geometry"/>
                </mxCell>
                <mxCell id="qzxj-ttTBUn77yOQ_jce-28" value="ava" style="rounded=0;whiteSpace=wrap;html=1;fillColor=#dae8fc;strokeColor=#6c8ebf;" parent="1" vertex="1">
                    <mxGeometry x="810" y="-254.5" width="120" height="60" as="geometry"/>
                </mxCell>
                <mxCell id="qzxj-ttTBUn77yOQ_jce-30" value="credentialLink" style="rounded=0;whiteSpace=wrap;html=1;fillColor=#dae8fc;strokeColor=#6c8ebf;" parent="1" vertex="1">
                    <mxGeometry x="3712.5" y="-251.5" width="120" height="60" as="geometry"/>
                </mxCell>
                <mxCell id="OrvMSEwqDPW3akcP_g01-1" value="CVs" style="rounded=0;whiteSpace=wrap;html=1;fillColor=#fff2cc;strokeColor=#d6b656;" parent="1" vertex="1">
                    <mxGeometry x="975" y="-410" width="120" height="60" as="geometry"/>
                </mxCell>
                <mxCell id="OrvMSEwqDPW3akcP_g01-2" value="" style="rounded=0;whiteSpace=wrap;html=1;fillColor=#dae8fc;strokeColor=#6c8ebf;" parent="1" vertex="1">
                    <mxGeometry x="975" y="-350" width="120" height="10" as="geometry"/>
                </mxCell>
                <mxCell id="OrvMSEwqDPW3akcP_g01-7" value="additionalQuestions" style="rounded=0;whiteSpace=wrap;html=1;fillColor=#fff2cc;strokeColor=#d6b656;" parent="1" vertex="1">
                    <mxGeometry x="2240" y="1020" width="120" height="60" as="geometry"/>
                </mxCell>
                <mxCell id="OrvMSEwqDPW3akcP_g01-8" value="" style="rounded=0;whiteSpace=wrap;html=1;fillColor=#dae8fc;strokeColor=#6c8ebf;" parent="1" vertex="1">
                    <mxGeometry x="2240" y="1080" width="120" height="10" as="geometry"/>
                </mxCell>
                <mxCell id="YJpZj2CCEz0B78eYYyqZ-1" value="headline" style="rounded=0;whiteSpace=wrap;html=1;fillColor=#dae8fc;strokeColor=#6c8ebf;" parent="1" vertex="1">
                    <mxGeometry x="7120" y="-411.5" width="120" height="60" as="geometry"/>
                </mxCell>
            </root>
        </mxGraphModel>
    </diagram>
</mxfile>